<?xml version="1.0" encoding="UTF-8"?>
<svg width="32px" height="32px" viewBox="0 0 32 32" version="1.1" xmlns="http://www.w3.org/2000/svg" xmlns:xlink="http://www.w3.org/1999/xlink">
    <!-- Generator: Sketch 49.3 (51167) - http://www.bohemiancoding.com/sketch -->
    <title>logo</title>
    <desc>Created with Sketch.</desc>
    <defs>
        <linearGradient x1="2.80057798%" y1="2.77312136%" x2="101.562219%" y2="101.456596%" id="linearGradient-1">
            <stop stop-color="#45E8A7" offset="0%"></stop>
            <stop stop-color="#2E9EF6" offset="47.3582009%"></stop>
            <stop stop-color="#4494FF" offset="47.6755212%"></stop>
            <stop stop-color="#9B5CE4" offset="100%"></stop>
        </linearGradient>
        <circle id="path-2" cx="16" cy="16" r="16"></circle>
        <linearGradient x1="0%" y1="0%" x2="101.999998%" y2="100.999999%" id="linearGradient-4">
            <stop stop-color="#98FFB9" offset="0%"></stop>
            <stop stop-color="#85A1FF" offset="100%"></stop>
        </linearGradient>
        <linearGradient x1="0%" y1="0%" x2="101.999998%" y2="100.999999%" id="linearGradient-5">
            <stop stop-color="#7BFCFF" offset="0%"></stop>
            <stop stop-color="#85B5FF" offset="100%"></stop>
        </linearGradient>
        <linearGradient x1="50%" y1="50%" x2="66.1348155%" y2="100%" id="linearGradient-6">
            <stop stop-color="#FCFEFE" offset="0%"></stop>
            <stop stop-color="#DBEAF2" offset="100%"></stop>
        </linearGradient>
    </defs>
    <g id="U蜜界面" stroke="none" stroke-width="1" fill="none" fill-rule="evenodd">
        <g id="0.0登陆-账户登录" transform="translate(-24.000000, -20.000000)">
            <g id="logo" transform="translate(24.000000, 20.000000)">
                <g id="Group-2">
                    <g>
                        <g id="底色">
                            <mask id="mask-3" fill="white">
                                <use xlink:href="#path-2"></use>
                            </mask>
                            <use id="Mask" fill="url(#linearGradient-1)" xlink:href="#path-2"></use>
                            <circle id="Oval-4-Copy" fill="url(#linearGradient-4)" opacity="0.5" mask="url(#mask-3)" cx="18.2857143" cy="10.2857143" r="14.6285714"></circle>
                            <circle id="Oval-4-Copy-2" fill="url(#linearGradient-5)" opacity="0.5" mask="url(#mask-3)" cx="22.4" cy="15.3142857" r="14.6285714"></circle>
                        </g>
                        <path d="M7.30400765,24.6857143 C8.14897992,23.9729301 8.68571429,22.9062884 8.68571429,21.7142857 C8.68571429,21.0532126 8.52063069,20.4306968 8.22943941,19.8857143 L8.22980955,19.8857143 C7.64398662,18.7165346 7.31428571,17.3967702 7.31428571,16 C7.31428571,11.2030125 11.2030125,7.31428571 16,7.31428571 C20.7969875,7.31428571 24.6857143,11.2030125 24.6857143,16 C24.6857143,20.7969875 20.7969875,24.6857143 16,24.6857143 L7.30400765,24.6857143 Z M20.5714286,16 L20.5714286,14.1714286 C20.5714286,12.6565904 19.3434096,11.4285714 17.8285714,11.4285714 C17.1260759,11.4285714 16.4852631,11.6926661 16,12.1269883 C15.5147369,11.6926661 14.8739241,11.4285714 14.1714286,11.4285714 C12.6565904,11.4285714 11.4285714,12.6565904 11.4285714,14.1714286 L11.4285714,16 C11.4285714,16.5049461 11.8379111,16.9142857 12.3428571,16.9142857 C12.8478032,16.9142857 13.2571429,16.5049461 13.2571429,16 L13.2571429,14.1714286 C13.2571429,13.6664825 13.6664825,13.2571429 14.1714286,13.2571429 C14.6763746,13.2571429 15.0857143,13.6664825 15.0857143,14.1714286 L15.0857143,16 C15.0857143,16.5049461 15.4950539,16.9142857 16,16.9142857 C16.5049461,16.9142857 16.9142857,16.5049461 16.9142857,16 L16.9142857,14.1714286 C16.9142857,13.6664825 17.3236254,13.2571429 17.8285714,13.2571429 C18.3335175,13.2571429 18.7428571,13.6664825 18.7428571,14.1714286 L18.7428571,16 C18.7428571,16.5049461 19.1521968,16.9142857 19.6571429,16.9142857 C20.1620889,16.9142857 20.5714286,16.5049461 20.5714286,16 Z M12.6058875,20.1420161 C14.4804041,22.0165327 17.5195959,22.0165327 19.3941125,20.1420161 C19.6619006,19.874228 19.6619006,19.4400577 19.3941125,19.1722696 C19.1263245,18.9044815 18.6921542,18.9044815 18.4243661,19.1722696 C17.0854257,20.5112101 14.9145743,20.5112101 13.5756339,19.1722696 C13.3078458,18.9044815 12.8736755,18.9044815 12.6058875,19.1722696 C12.3380994,19.4400577 12.3380994,19.874228 12.6058875,20.1420161 Z" id="Combined-Shape" fill="url(#linearGradient-6)"></path>
                    </g>
                </g>
            </g>
        </g>
    </g>
</svg>