<?xml version="1.0" encoding="UTF-8"?>
<svg width="48px" height="48px" viewBox="0 0 48 48" version="1.1" xmlns="http://www.w3.org/2000/svg" xmlns:xlink="http://www.w3.org/1999/xlink">
    <!-- Generator: Sketch 48.2 (47327) - http://www.bohemiancoding.com/sketch -->
    <title>Group 7</title>
    <desc>Created with Sketch.</desc>
    <defs>
        <polygon id="path-1" points="0.00182926829 0.0195121951 19.9803354 0.0195121951 19.9803354 19.9999695 0.00182926829 19.9999695"></polygon>
    </defs>
    <g id="管理-首页" stroke="none" stroke-width="1" fill="none" fill-rule="evenodd" transform="translate(-112.000000, -720.000000)">
        <g id="index_icon3" transform="translate(112.000000, 720.000000)">
            <rect id="Rectangle-7" fill-opacity="0.15" fill="#7A93FF" x="0" y="0" width="48" height="48" rx="24"></rect>
            <g id="数据" transform="translate(14.000000, 14.000000)">
                <mask id="mask-2" fill="white">
                    <use xlink:href="#path-1"></use>
                </mask>
                <g id="Clip-2"></g>
                <path d="M4.14585366,19.9999695 L4.14585366,6.69920732 C4.14585366,6.17103659 3.76594512,5.76003049 3.32103659,5.76003049 L0.824847561,5.76003049 C0.369054878,5.76003049 0,6.20615854 0,6.69920732 L0,19.9999695 L4.14585366,19.9999695 Z M9.43134146,19.9999695 L9.43134146,0.993932927 C9.43134146,0.465640244 9.05143293,0.0195121951 8.6064939,0.0195121951 L6.11018293,0.0195121951 C5.65429878,0.0195121951 5.28533537,0.465640244 5.28533537,0.993932927 L5.28533537,19.9999695 L9.43134146,19.9999695 Z M14.7057317,19.9999695 L14.7057317,11.5946341 C14.7057317,11.0662195 14.3260671,10.6202134 13.8810061,10.6202134 L11.3956402,10.6202134 C10.9397561,10.6202134 10.5708232,11.0662195 10.5708232,11.5946341 L10.5708232,19.9999695 L14.7057317,19.9999695 Z M19.9803354,19.9999695 L19.9803354,6.69920732 C19.9803354,6.17103659 19.6004573,5.76003049 19.1555183,5.76003049 L16.6702744,5.76003049 C16.2143902,5.76003049 15.8454268,6.20615854 15.8454268,6.69920732 L15.8454268,19.9999695 L19.9803354,19.9999695 Z" id="Fill-1" fill="#7A93FF" mask="url(#mask-2)"></path>
            </g>
        </g>
    </g>
</svg>