<?xml version="1.0" encoding="UTF-8"?>
<svg width="48px" height="48px" viewBox="0 0 48 48" version="1.1" xmlns="http://www.w3.org/2000/svg" xmlns:xlink="http://www.w3.org/1999/xlink">
    <!-- Generator: Sketch 48.2 (47327) - http://www.bohemiancoding.com/sketch -->
    <title>Group</title>
    <desc>Created with Sketch.</desc>
    <defs>
        <path d="M18.6875,18.75 C20.8958444,19.5833375 22,20.66666 22,22 L2,22 C2,20.66666 3.10415562,19.5833375 5.3125,18.75 C5.645835,18.6249994 6.14583,18.5104172 6.8125,18.40625 C7.47917,18.3020828 7.87499937,18.2291669 8,18.1875 C8.70833688,17.9791656 9.12499937,17.7916675 9.25,17.625 L9.3125,15.0625 C9.06249875,14.6458313 8.87500063,14.270835 8.75,13.9375 L8.3125,11.9375 C8.02083187,11.9375 7.83333375,11.6875025 7.75,11.1875 C7.70833313,10.9374987 7.63541719,10.645835 7.53125,10.3125 C7.42708281,9.979165 7.375,9.70833437 7.375,9.5 C7.375,9.3333325 7.39583312,9.19791719 7.4375,9.09375 C7.47916687,8.98958281 7.54166625,8.91666688 7.625,8.875 L7.6875,8.875 C7.5208325,8.33333062 7.41666688,7.45833938 7.375,6.25 C7.33333313,5.12499437 7.7291625,4.13542094 8.5625,3.28125 C9.3958375,2.42707906 10.5416594,2 12,2 C13.4583406,2 14.6041625,2.42707906 15.4375,3.28125 C16.2708375,4.13542094 16.6666669,5.12499437 16.625,6.25 L16.3125,8.875 C16.5208344,8.91666688 16.625,9.12499812 16.625,9.5 C16.625,9.58333375 16.5000013,10.1666613 16.25,11.25 C16.2083331,11.4583344 16.1458338,11.6249994 16.0625,11.75 C15.9791662,11.8750006 15.8958337,11.9583331 15.8125,12 L15.6875,12 C15.5208325,12.9583381 15.3750006,13.604165 15.25,13.9375 L14.6875,15.0625 C14.6041662,16.6041744 14.6249994,17.4583325 14.75,17.625 C14.8750006,17.7916675 15.2916631,17.9791656 16,18.1875 C16.1250006,18.2291669 16.52083,18.3020828 17.1875,18.40625 C17.85417,18.5104172 18.354165,18.6249994 18.6875,18.75 Z" id="path-1"></path>
    </defs>
    <g id="管理-首页" stroke="none" stroke-width="1" fill="none" fill-rule="evenodd" transform="translate(-112.000000, -484.000000)">
        <g id="index_icon1" transform="translate(112.000000, 484.000000)">
            <rect id="Rectangle-7" fill="#E7F3FF" x="0" y="0" width="48" height="48" rx="24"></rect>
            <g id="图标/24/33" transform="translate(12.000000, 12.000000)">
                <mask id="mask-2" fill="white">
                    <use xlink:href="#path-1"></use>
                </mask>
                <use id="Mask" fill="#000000" fill-rule="evenodd" xlink:href="#path-1"></use>
                <g id="颜色/蓝色" mask="url(#mask-2)" fill="#1890FF" fill-rule="evenodd">
                    <g transform="translate(-5.000000, -5.000000)" id="Rectangle">
                        <rect x="0" y="0" width="34" height="34" rx="17"></rect>
                    </g>
                </g>
            </g>
        </g>
    </g>
</svg>