<?xml version="1.0" encoding="UTF-8"?>
<svg width="1440px" height="750px" viewBox="0 0 1440 750" version="1.1" xmlns="http://www.w3.org/2000/svg" xmlns:xlink="http://www.w3.org/1999/xlink">
    <!-- Generator: Sketch 51.2 (57519) - http://www.bohemiancoding.com/sketch -->
    <title>背景@1x</title>
    <desc>Created with Sketch.</desc>
    <defs>
        <rect id="path-1" x="0" y="0" width="1440" height="750"></rect>
        <polygon id="path-3" points="0.0793267447 0.300622993 1867.93418 0.300622993 1867.93418 1414.24934 0.0793267447 1414.24934"></polygon>
    </defs>
    <g id="9月18优化" stroke="none" stroke-width="1" fill="none" fill-rule="evenodd">
        <g id="登陆页">
            <g id="背景">
                <mask id="mask-2" fill="white">
                    <use xlink:href="#path-1"></use>
                </mask>
                <use id="Mask" fill="#F7F9FA" xlink:href="#path-1"></use>
                <g id="Page-1" opacity="0.127887228" mask="url(#mask-2)">
                    <g transform="translate(-103.000000, 337.000000)" id="Group-3">
                        <g transform="translate(0.730680, 0.480424)">
                            <mask id="mask-4" fill="white">
                                <use xlink:href="#path-3"></use>
                            </mask>
                            <g id="Clip-2"></g>
                            <path d="M9.03452391,307.149584 L102.294053,240.120621 C102.672513,240.466676 103.156851,240.702385 103.704266,240.763939 C104.474702,240.85552 105.195577,240.589785 105.727974,240.111613 L182.372822,292.051496 L9.7283667,309.026241 C9.63300086,308.363406 9.41598726,307.740355 9.03452391,307.149584 Z M9.78693784,309.559963 L183.084686,292.530419 L187.112579,295.272592 L182.073208,323.441225 L9.79369605,309.869236 C9.79369605,309.763393 9.77867781,309.665806 9.78693784,309.559963 Z M182.516246,324.008727 L227.961447,327.60065 C227.839048,329.223584 228.243039,330.90657 229.246257,332.374867 C229.961126,333.424294 230.92004,334.262785 231.977325,334.795005 L152.061504,498.565679 C151.806194,498.459836 151.5644,498.396029 151.303833,498.320963 L182.516246,324.008727 Z M152.555604,498.79313 L232.468421,335.020955 C233.696913,335.544167 235.047053,335.75135 236.352139,335.586955 L241.715904,383.347897 L152.910785,499.013074 C152.801903,498.933504 152.678003,498.865194 152.555604,498.79313 Z M153.352322,499.357629 L241.808266,384.127836 L246.557034,426.426952 L153.799114,499.816284 C153.661697,499.659395 153.49124,499.493499 153.352322,499.357629 Z M154.149039,500.226897 L246.62762,427.098796 L250.212474,458.981711 L154.502719,500.855952 C154.412609,500.654775 154.316493,500.477618 154.195596,500.297459 C154.172318,500.260676 154.172318,500.260676 154.149039,500.226897 Z M247.148753,426.692687 L306.813976,379.468469 L325.216579,421.347215 C325.05288,421.445552 324.84713,421.533379 324.670666,421.645979 C322.836188,422.90409 322.142345,425.20187 322.831682,427.218902 L250.725347,458.755761 L247.148753,426.692687 Z M250.800438,459.321761 L323.014154,427.71434 C323.121534,427.944793 323.250691,428.170743 323.405379,428.396692 C324.569293,430.090939 326.581737,430.824337 328.459017,430.415225 L348.500862,502.499154 L275.553505,648.62474 C274.430891,648.107533 273.194139,647.874077 271.960391,647.947642 L250.800438,459.321761 Z M276.0431,648.852191 L348.715622,503.272337 L361.743197,550.091947 L277.119157,649.56457 C276.775239,649.276316 276.415552,649.063127 276.0431,648.852191 Z M277.511133,649.90387 L361.912903,550.721003 L371.282784,584.422775 L278.370927,650.830188 C278.096844,650.501398 277.835527,650.196629 277.511133,649.90387 Z M278.689314,651.259568 L371.456245,584.973011 L375.228076,598.568271 L278.881547,651.586857 C278.81772,651.481013 278.763654,651.362408 278.689314,651.259568 Z M279.145118,652.076289 L375.382764,599.135772 L380.89521,618.936013 L279.475519,652.825451 C279.387662,652.576231 279.284036,652.316501 279.145118,652.076289 Z M279.642221,653.326894 L381.028872,619.463729 L384.944879,633.494374 L279.745847,653.663942 C279.722569,653.558849 279.693283,653.450003 279.642221,653.326894 Z M381.537991,619.265554 L494.044148,581.676849 C494.180063,581.998133 494.35052,582.317164 494.550263,582.613676 C495.147238,583.491952 495.971739,584.088729 496.904372,584.427279 L488.000807,613.715151 L385.466763,633.396037 L381.537991,619.265554 Z M385.630462,633.929759 L487.822841,614.321687 L433.732389,792.399249 C432.410033,792.041183 431.022347,792.036679 429.699991,792.428525 L385.630462,633.929759 Z M434.254273,792.557639 L488.422069,614.195576 L576.083548,597.403992 C576.289298,598.339318 576.651238,599.251374 577.22944,600.086862 C577.65746,600.712915 578.181597,601.26165 578.736521,601.701538 L436.07974,793.462188 C435.509798,793.083854 434.882036,792.768576 434.254273,792.557639 Z M436.507009,793.791729 L579.165291,602.023573 C580.205305,602.755469 581.372222,603.18635 582.587198,603.306456 L574.080115,711.635403 L437.984054,795.345602 C437.559037,794.76534 437.065688,794.230117 436.507009,793.791729 Z M438.276158,795.811013 L574.060591,712.320008 L568.344648,785.081785 L439.254597,798.635759 C439.123938,797.649387 438.798042,796.691541 438.276158,795.811013 Z M439.307161,799.166477 L568.302597,785.620761 L566.332954,810.558541 C564.777815,810.486477 563.181376,810.887332 561.778673,811.850432 C560.027545,813.043987 558.95299,814.854586 558.621838,816.773281 L439.296648,800.3803 C439.324432,799.977194 439.324432,799.562828 439.307161,799.166477 Z M568.825983,785.569716 L579.850123,784.40844 L568.689317,811.026204 C568.10736,810.813767 567.486355,810.664385 566.876615,810.596825 L568.825983,785.569716 Z M566.237589,825.58982 C567.636538,825.538024 569.024974,825.12591 570.266983,824.270154 C572.912446,822.469313 574.049327,819.281997 573.335961,816.328138 L622.513195,802.789178 L638.825258,889.184499 L567.501374,1074.27851 C566.503411,1073.90618 565.467153,1073.66597 564.399356,1073.57063 L566.237589,825.58982 Z M567.989467,1074.50446 L639.003224,890.197894 L648.701254,941.592045 L569.061769,1075.06445 C568.707339,1074.84301 568.357413,1074.66885 567.989467,1074.50446 Z M639.37793,889.240048 L678.644625,787.329271 L750.942443,767.420183 C751.065593,767.82479 751.263833,768.227897 751.513136,768.590467 C751.861559,769.102419 752.272308,769.512281 752.752141,769.830562 L705.428158,846.775034 C701.894366,844.722721 697.359608,844.736984 693.773252,847.190151 C688.781939,850.59591 687.500883,857.404424 690.909273,862.392581 C691.781082,863.663454 692.87441,864.692613 694.107407,865.495072 L649.116509,940.876663 L639.37793,889.240048 Z M649.271197,941.669363 L694.578229,865.735284 C696.344375,866.739671 698.379346,867.226101 700.405307,867.151785 L735.104956,1392.40729 C734.846642,1392.43582 734.601845,1392.49587 734.331516,1392.52364 L649.271197,941.669363 Z M735.659129,1392.39003 L700.945964,867.118005 C702.72938,866.950607 704.525562,866.341069 706.117496,865.250355 C707.19956,864.509451 708.087138,863.619915 708.809516,862.620032 L751.311892,895.336934 L736.168247,1392.37501 C735.980519,1392.37501 735.813066,1392.39003 735.659129,1392.39003 Z M736.693135,1392.40054 L751.838281,895.741541 L830.713338,956.427401 L738.662026,1392.7008 C738.009484,1392.52815 737.373461,1392.45158 736.693135,1392.40054 Z M830.82222,955.835127 L751.861559,895.053934 L755.666431,770.716345 C756.535987,770.682565 757.465616,770.414578 758.263836,769.865844 C758.285612,769.851581 758.303634,769.841072 758.337425,769.817801 L846.639433,880.89943 L830.82222,955.835127 Z M831.304306,956.205204 L847.068954,881.456422 L1019.31392,1098.11131 C1018.71545,1098.59624 1018.20408,1099.12846 1017.73175,1099.71023 L831.304306,956.205204 Z M1019.72167,1097.77802 L847.21313,880.76431 L858.367929,828.014462 L1020.4478,1097.29159 C1020.35244,1097.34864 1020.2368,1097.39968 1020.13092,1097.47625 C1019.9935,1097.57159 1019.86584,1097.68118 1019.72167,1097.77802 Z M1020.92613,1097.01309 L858.527873,827.237525 L878.273107,733.598305 L929.217988,720.089371 C929.435002,720.779231 929.762399,721.483353 930.204686,722.129674 C931.955813,724.689435 934.993253,725.824438 937.850473,725.28321 L1023.58511,1095.91187 C1022.67426,1096.15208 1021.75889,1096.51315 1020.92613,1097.01309 Z M1024.113,1095.78426 L938.378365,725.153345 C939.172079,724.916886 939.943266,724.595602 940.673903,724.103167 C941.804777,723.324729 942.671329,722.263292 943.21574,721.100515 L1037.23069,761.300777 L1026.51968,1095.57632 C1025.7117,1095.56431 1024.90522,1095.63187 1024.113,1095.78426 Z M1027.05958,1095.59059 L1037.75858,761.508711 L1105.60724,790.545862 L1028.94137,1095.90136 C1028.32637,1095.75048 1027.69335,1095.64463 1027.05958,1095.59059 Z M1105.72063,790.006135 L1037.77735,760.92995 L1040.99501,660.17069 L1080.19487,638.405963 L1128.04825,701.121615 L1105.72063,790.006135 Z M1106.2305,790.220074 L1128.44999,701.669599 L1236.84565,843.655279 C1236.20738,844.146212 1235.693,844.745992 1235.3641,845.436602 L1106.2305,790.220074 Z M1237.4644,843.28295 L1136.16486,671.039541 L1153.57175,601.63548 C1154.32417,601.796873 1155.07808,601.739072 1155.80421,601.552907 L1237.88567,843.095284 C1237.752,843.130565 1237.61384,843.23866 1237.4644,843.28295 Z M1238.40154,842.926385 L1156.31859,601.380255 C1156.64448,601.233875 1156.93809,601.085244 1157.23846,600.878812 C1159.46491,599.36022 1160.0311,596.353064 1158.51275,594.133353 C1158.47746,594.077053 1158.40763,594.023005 1158.35581,593.950942 L1198.76465,559.732714 L1318.90608,633.566438 L1241.1266,842.960164 C1240.25104,842.687674 1239.30339,842.665905 1238.40154,842.926385 Z M1319.09831,633.020706 L1199.20318,559.356631 L1217.6621,543.750345 L1323.83807,620.259432 L1319.09831,633.020706 Z M1319.56012,633.326225 L1324.29312,620.594228 L1471.71819,726.831828 L1319.56012,633.326225 Z M1324.49812,620.066512 L1338.55444,582.197058 L1474.36966,727.560721 C1474.26303,727.657557 1474.19996,727.755143 1474.11586,727.862488 L1324.49812,620.066512 Z M1338.78648,581.63256 L1367.84903,503.346653 L1475.52382,726.688451 C1475.40067,726.776279 1475.26175,726.821318 1475.13259,726.905393 C1474.99292,726.999225 1474.89906,727.122334 1474.77741,727.207159 L1338.78648,581.63256 Z M1476.38211,726.318374 L1378.6096,474.378562 L1399.78156,417.352186 L1476.44068,726.301109 C1476.40989,726.296605 1476.38812,726.308615 1476.38211,726.318374 Z M1476.97758,726.139716 L1400.12023,416.45139 L1409.3602,391.606692 L1478.99979,399.55021 L1477.62412,726.082666 C1477.39659,726.084167 1477.19159,726.12095 1476.97758,726.139716 Z M1479.5442,399.073538 L1479.84306,329.32192 L1493.97973,325.130218 L1858.39062,441.95517 C1858.35908,442.107554 1858.31177,442.217902 1858.28099,442.364281 L1479.5442,399.073538 Z M1856.98041,440.94778 L1494.88909,324.848719 L1543.21028,310.508801 L1856.98041,440.94778 Z M1543.24407,309.91878 L1480.03379,283.641817 L1480.35068,207.821838 C1481.75263,207.777549 1483.13431,207.354175 1484.36055,206.514934 C1485.83309,205.511297 1486.81829,204.070024 1487.31314,202.496634 L1704.16529,259.900594 C1704.02712,260.640748 1704.03613,261.404923 1704.21785,262.12556 L1543.24407,309.91878 Z M1704.32899,259.385639 L1487.44154,201.974923 C1487.88909,199.995424 1487.56244,197.859037 1486.33019,196.057446 C1485.60106,194.987 1484.62037,194.164273 1483.52478,193.608782 L1569.15805,9.67604775 C1570.37678,10.1497162 1571.77273,10.1226923 1573.02675,9.55444032 L1706.79498,256.569151 C1706.58773,256.681 1706.36922,256.776334 1706.17999,256.909202 C1705.26763,257.530751 1704.66089,258.406024 1704.32899,259.385639 Z M1568.67221,9.4163183 L1483.04345,193.397846 C1480.77194,192.434745 1478.05514,192.593135 1475.86173,194.08095 C1474.35089,195.126623 1473.34317,196.618942 1472.88736,198.259141 L1394.30216,178.689353 L1567.69377,8.74897878 C1567.98437,9.01621485 1568.32003,9.24591777 1568.67221,9.4163183 Z M1393.85236,179.133745 L1472.76572,198.787607 C1472.58475,199.671138 1472.5457,200.5907 1472.68762,201.498252 L1377.16634,220.575605 L1381.72138,191.021247 L1393.85236,179.133745 Z M1393.20958,178.976857 L1381.85053,190.118199 L1383.33359,180.441401 C1385.21537,180.589281 1386.93871,179.36495 1387.41104,177.528077 L1393.20958,178.976857 Z M1382.79969,180.375342 L1381.21151,190.758515 L1349.33003,221.975592 C1349.07773,221.735379 1348.81641,221.526695 1348.53482,221.327769 L1381.18072,179.590899 C1381.64554,179.964729 1382.18694,180.243225 1382.79969,180.375342 Z M1380.77598,179.223074 L1348.0715,221.038764 C1347.42872,220.646167 1346.73713,220.352658 1346.01551,220.161989 L1345.48311,220.034377 C1344.96498,219.946549 1344.45736,219.914271 1343.91971,219.921777 L1343.3783,219.954056 C1342.18135,220.08317 1340.97163,220.489279 1339.90534,221.223427 C1337.84333,222.627918 1336.73574,224.867146 1336.65689,227.185194 L1314.2279,227.651355 L1313.38162,171.148942 C1315.07643,171.004064 1316.5377,169.773727 1316.89363,168.035191 L1379.75924,176.060531 C1379.61432,177.254085 1380.00855,178.397345 1380.77598,179.223074 Z M1312.84171,171.154947 L1313.67898,227.662615 L1290.86852,228.133281 L1311.92935,170.99956 C1312.06001,171.031838 1312.19217,171.087387 1312.32959,171.112159 C1312.50756,171.148942 1312.67726,171.148942 1312.84171,171.154947 Z M1290.66953,228.683517 L1313.68799,228.19934 L1313.73154,231.039098 C1313.71577,231.039098 1313.70376,231.046605 1313.68799,231.051109 L1313.78786,235.207531 L1285.22241,243.473833 L1290.66953,228.683517 Z M1290.08682,228.694777 L1284.57513,243.659997 L1241.99916,255.969371 L1211.68409,232.198873 C1212.09033,231.700432 1212.3952,231.123172 1212.52436,230.451329 C1212.53037,230.403286 1212.52586,230.355995 1212.53037,230.315459 L1290.08682,228.694777 Z M1211.31614,232.596724 L1241.35413,256.158538 L1203.27162,267.166263 L1208.34779,233.606366 C1209.46364,233.704703 1210.52543,233.320363 1211.31614,232.596724 Z M1207.80788,233.530549 L1202.69642,267.327655 L1179.506,274.037082 C1179.37985,273.664753 1179.19663,273.271406 1178.93982,272.911088 C1178.77912,272.674629 1178.58839,272.463692 1178.39015,272.273024 L1206.75585,233.119936 C1207.08175,233.307602 1207.42792,233.450979 1207.80788,233.530549 Z M1177.67453,279.656546 C1178.90077,278.821058 1179.61789,277.504395 1179.75681,276.130682 L1201.26218,277.081772 L1193.88522,327.149501 L1148.93187,306.811034 L1172.02542,279.510167 C1173.63687,280.742756 1175.90538,280.864363 1177.67453,279.656546 Z M1171.59514,279.182878 L1148.42125,306.580581 L1139.22558,302.419655 L1171.20843,278.728727 C1171.34584,278.896875 1171.45623,279.058268 1171.59514,279.182878 Z M1170.87352,278.315111 L1138.67366,302.168934 L1118.62205,293.100923 L1170.37942,277.324236 C1170.51308,277.675546 1170.65951,278.004337 1170.87352,278.315111 Z M1170.21347,276.790515 L1117.85837,292.753366 L1061.48965,267.254841 C1061.58502,267.031894 1061.65561,266.805944 1061.69841,266.559727 C1061.70817,266.510934 1061.70366,266.455385 1061.71267,266.405841 L1170.09783,275.864947 C1170.1181,276.17422 1170.14664,276.486496 1170.21347,276.790515 Z M1061.25987,267.75178 L1117.07217,292.99583 L1049.65453,313.548987 L1057.16891,269.912939 C1058.87348,270.094599 1060.47968,269.208817 1061.25987,267.75178 Z M1056.62975,269.828865 L1049.06731,313.729897 L1021.62974,322.090782 L1055.58824,269.418252 C1055.90963,269.600663 1056.25429,269.738034 1056.62975,269.828865 Z M1055.12793,269.129997 L1020.81875,322.344507 L1002.67972,327.871639 L986.259524,316.894692 L1054.31093,268.327538 C1054.54221,268.621048 1054.81104,268.89504 1055.12793,269.129997 Z M985.791706,317.230989 L1002.00765,328.077321 L980.850704,334.530021 L970.305646,328.285255 L985.791706,317.230989 Z M985.310371,316.906703 L969.796527,327.983488 L968.483933,327.211056 L955.635076,298.926069 C956.117161,298.66634 956.530914,298.31578 956.866572,297.886401 L985.310371,316.906703 Z M955.147734,299.156523 L967.671446,326.729881 L943.048287,312.152003 L951.862493,298.890788 C952.23044,299.095719 952.622416,299.261615 953.062451,299.34569 C953.788583,299.484562 954.5027,299.390729 955.147734,299.156523 Z M951.412697,298.586019 L942.581971,311.867501 L929.201468,303.948756 L950.169938,296.987857 C950.434259,297.621416 950.859275,298.163395 951.412697,298.586019 Z M928.509878,304.176207 L942.280855,312.33066 L929.336632,331.808867 L907.466317,311.169385 L928.509878,304.176207 Z M927.894881,303.809883 L907.017272,310.744509 L853.95632,260.658013 C854.062199,260.511634 854.17033,260.379517 854.279212,260.233138 L927.894881,303.809883 Z M853.579362,261.045355 L906.435315,310.933676 L878.737922,320.138308 L852.483782,261.816286 C852.654239,261.725456 852.823194,261.636127 852.982387,261.531034 C853.192643,261.382403 853.391634,261.224013 853.579362,261.045355 Z M851.983674,262.054247 L878.220543,320.31096 L828.748201,336.739223 C828.625051,336.413435 828.463605,336.097406 828.263863,335.793387 C826.946012,333.867186 824.518313,333.196844 822.451803,334.031581 L805.686939,304.940382 L847.122269,261.214255 C848.459644,262.357515 850.324909,262.668289 851.983674,262.054247 Z M846.710018,260.84718 L805.39934,304.438939 L798.192836,291.936645 L846.339068,260.413297 C846.469727,260.558926 846.594378,260.709809 846.710018,260.84718 Z M805.008115,304.851804 L790.610126,320.042973 L771.234341,309.581732 L797.733278,292.233156 L805.008115,304.851804 Z M797.475715,291.769997 L770.692182,309.312244 L735.459386,290.26717 L772.617521,254.07695 C773.025266,254.434265 773.520868,254.695496 774.099071,254.808095 C774.774891,254.92595 775.443954,254.827613 776.024409,254.557374 L797.475715,291.769997 Z M772.234556,253.683602 L734.956275,289.996931 L718.144855,280.911655 C718.541337,279.917777 718.5939,278.803042 718.304048,277.752114 L771.934191,253.241462 C772.022048,253.402103 772.121919,253.547732 772.234556,253.683602 Z M717.889545,281.395082 L734.545526,290.390279 L718.119324,306.389912 L714.819816,283.745408 C715.371737,283.605034 715.905635,283.374581 716.389973,283.036032 C717.03726,282.597645 717.524602,282.030143 717.889545,281.395082 Z M714.290423,283.830984 L717.642495,306.85082 L705.763065,318.423042 L640.680762,307.532422 C640.75285,306.891355 640.692026,306.237528 640.50655,305.597212 L709.107628,280.723989 C709.250301,281.079804 709.414751,281.434867 709.639273,281.76666 C710.708572,283.325037 712.53404,284.080204 714.290423,283.830984 Z M711.08553,274.929621 C711.015695,274.952891 710.965384,274.989674 710.915824,275.01895 C709.196986,276.193737 708.468602,278.282833 708.949936,280.188767 L640.345104,305.097271 C640.232468,304.808265 640.055252,304.517759 639.873532,304.256528 C639.049781,303.04721 637.767223,302.33483 636.425343,302.179443 L644.425561,165.875533 C645.25607,165.847759 646.07982,165.618806 646.801447,165.175915 L711.08553,274.929621 Z M635.881683,302.135154 C634.933281,302.139658 633.963102,302.415151 633.12959,302.987156 C631.621007,304.016316 630.899381,305.74209 631.054069,307.431082 L615.585279,309.678568 L582.686318,275.819907 L642.299729,165.426637 C642.787821,165.655589 643.343496,165.789207 643.902926,165.847759 L635.881683,302.135154 Z M641.808632,165.200687 L582.294342,275.401788 L545.266115,237.30113 L640.604169,164.145255 C640.96686,164.563374 641.358836,164.913934 641.808632,165.200687 Z M544.823077,237.62992 L582.028519,275.906233 L569.373398,299.28939 L537.848606,242.98365 L544.823077,237.62992 Z M544.449123,237.238074 L537.593295,242.489714 L522.275439,215.162573 C522.296465,215.143806 522.313736,215.1363 522.328003,215.124289 C522.449651,215.039464 522.573551,214.930618 522.686188,214.824024 L544.449123,237.238074 Z M521.814379,215.426806 L537.154763,242.835769 L532.949655,246.073379 L521.526029,215.565679 C521.624399,215.524393 521.713757,215.468844 521.814379,215.426806 Z M521.019163,215.762353 L532.474328,246.393912 L523.486661,253.305268 L520.268251,215.911735 C520.534825,215.882459 520.77737,215.823907 521.019163,215.762353 Z M519.739609,215.965782 L522.966278,253.712878 L447.529648,311.575493 C445.084678,308.599865 440.726385,307.928021 437.489203,310.141727 C436.841916,310.589122 436.299007,311.10783 435.843954,311.678334 L432.084888,309.161361 L516.6038,214.94413 C517.51766,215.63474 518.615494,216.013074 519.739609,215.965782 Z M516.186293,214.592069 L431.627583,308.855841 L412.386962,295.968456 L515.798072,214.142422 C515.933236,214.297809 516.054883,214.473464 516.186293,214.592069 Z M515.481938,213.712292 L411.911634,295.649424 L365.11329,264.266451 L515.087709,212.987151 C515.207855,213.236371 515.342268,213.47208 515.481938,213.712292 Z M364.481022,264.498406 L411.449823,295.983469 L401.927507,303.544149 L332.869124,281.785427 C333.520165,279.693329 333.510403,277.433833 332.864619,275.31396 L364.481022,264.498406 Z M363.913333,264.11857 L332.66788,274.806512 C332.365262,273.983785 331.970282,273.176072 331.452153,272.420905 C328.043012,267.438003 321.232239,266.156621 316.246183,269.565382 C315.826423,269.848382 315.462982,270.142642 315.098789,270.476687 L216.766098,166.586411 C216.993624,166.350703 217.185858,166.105236 217.375088,165.862021 L363.913333,264.11857 Z M216.376375,166.95874 L314.693297,270.827247 C312.403015,273.110013 311.281903,276.240279 311.516939,279.369042 L265.408682,283.899294 L214.535138,168.172562 C214.885063,168.008918 215.238743,167.821252 215.579657,167.595302 C215.858245,167.40013 216.118061,167.181687 216.376375,166.95874 Z M214.041038,168.395509 L264.822971,283.946586 L229.982151,287.384623 L212.669873,168.788857 C213.143698,168.684515 213.595747,168.56591 214.041038,168.395509 Z M212.133721,168.866175 L229.450505,287.429663 L188.342573,291.465979 L210.308254,168.829393 C210.904478,168.907462 211.527735,168.920223 212.133721,168.866175 Z M187.219959,294.674313 L183.927961,292.444093 L187.68177,292.076268 L187.219959,294.674313 Z M229.276294,323.848836 C228.594466,324.810435 228.188973,325.901149 228.023772,327.049663 L182.613114,323.479509 L187.602174,295.603634 L229.276294,323.848836 Z M234.296892,320.712565 C233.223839,320.87696 232.174814,321.256796 231.2159,321.912125 C230.585134,322.346008 230.050484,322.842947 229.587922,323.407446 L187.71406,295.011361 L188.235943,292.025223 L229.534607,287.96939 L234.296892,320.712565 Z M234.841303,320.645756 L230.067004,287.913841 L265.055003,284.480308 L274.396349,305.6963 L241.851068,324.179127 C241.779731,324.073284 241.746691,323.98996 241.678358,323.881114 C240.093934,321.56757 237.43195,320.415302 234.841303,320.645756 Z M242.194986,382.730851 L236.890542,335.519395 C237.878743,335.314464 238.818134,334.924119 239.694448,334.321337 C241.90213,332.815507 243.050274,330.36309 242.968425,327.879146 L283.143725,325.599382 L284.200258,328.005257 L242.194986,382.730851 Z M306.59471,378.953515 L247.054889,426.037358 L242.283593,383.500281 L284.433041,328.571257 L306.59471,378.953515 Z M307.02348,378.613464 L284.820511,328.094586 L286.888523,325.405711 L347.42931,321.95191 L357.295544,338.82982 L307.02348,378.613464 Z M325.723445,421.110756 L307.265274,379.114907 L357.569627,339.309493 L376.014281,370.841849 L330.325034,421.790106 C328.998172,420.79848 327.279335,420.533496 325.723445,421.110756 Z M348.867307,501.766507 L328.9794,430.235066 C329.369123,430.095443 329.783626,429.913782 330.151573,429.66156 C332.378028,428.144469 332.945717,425.141817 331.422868,422.919103 C331.330505,422.777979 331.218619,422.648865 331.090964,422.502485 L379.279247,376.439544 L396.615555,406.092239 L348.867307,501.766507 Z M362.170466,549.593507 L349.070804,502.546446 L396.951212,406.661992 L432.331187,467.139167 L362.170466,549.593507 Z M371.764119,584.069212 L362.343175,550.218058 L432.604519,467.622594 L462.683055,519.068541 L371.764119,584.069212 Z M375.717671,598.316048 L371.918056,584.633711 L462.976661,519.536204 L476.574178,542.806761 L375.717671,598.316048 Z M497.275323,575.208385 C496.972705,575.291708 496.642304,575.411814 496.353203,575.557443 L477.321335,543.007188 L488.946206,536.610788 L497.275323,575.208385 Z M497.802463,575.083775 L489.471093,536.354061 L511.222764,524.371225 L499.409415,575.088279 C498.885278,575.011711 498.350629,575.016215 497.802463,575.083775 Z M575.988933,596.853005 L488.600786,613.619817 L497.415743,584.58717 C498.700554,584.885934 500.116774,584.695265 501.303215,583.883048 C502.338723,583.178175 502.998024,582.15352 503.269103,581.0553 L576.007706,594.733883 C575.907084,595.417737 575.896571,596.148883 575.988933,596.853005 Z M583.789408,588.341987 C582.20198,588.271424 580.593526,588.673029 579.199082,589.62487 C577.572607,590.737353 576.507063,592.38656 576.124097,594.194907 L503.371227,580.518576 C503.453076,579.898528 503.42304,579.273976 503.25859,578.668191 L586.698442,552.207316 L583.789408,588.341987 Z M584.333069,588.385525 L587.267633,552.025655 L687.19376,520.33491 C687.3094,520.616408 687.464088,520.918175 687.621029,521.194419 L589.400974,591.262066 C588.116164,589.600098 586.271173,588.598714 584.333069,588.385525 Z M574.662822,711.284844 L583.128606,603.350745 C583.719573,603.383024 584.286512,603.355249 584.863212,603.215626 L602.052341,694.431706 L574.662822,711.284844 Z M580.078401,783.84244 L568.888308,785.012724 L574.616266,711.958939 L602.169484,695.014971 L606.894223,720.005297 L580.078401,783.84244 Z M570.70101,812.170215 C570.238448,811.797135 569.733084,811.498371 569.177409,811.255156 L580.470377,784.342382 L595.911382,782.737464 L570.70101,812.170215 Z M572.227614,813.796151 C571.867177,813.325485 571.510493,812.899859 571.10425,812.536538 L596.7081,782.65339 L618.291567,780.385637 L618.947113,783.937775 L572.227614,813.796151 Z M622.41032,802.265966 L573.190284,815.808679 C573.028838,815.271955 572.796055,814.750244 572.506954,814.244297 L619.057497,784.506777 L622.41032,802.265966 Z M750.782499,766.88496 L678.882665,786.700215 L683.967841,773.47278 L750.719422,766.487859 C750.732939,766.616973 750.739697,766.741584 750.782499,766.88496 Z M758.236052,761.817984 L787.775433,710.789406 L811.7881,750.660878 L760.129102,764.358979 C759.978168,763.914586 759.813719,763.518987 759.538134,763.118883 C759.179198,762.591167 758.71964,762.154281 758.236052,761.817984 Z M857.942913,827.328355 L846.782106,880.213324 L758.750427,769.477751 C760.070531,768.296958 760.644227,766.546411 760.307068,764.878438 L812.065187,751.13905 L857.942913,827.328355 Z M877.683641,733.743183 L858.105861,826.555923 L812.632876,751.000928 L877.683641,733.743183 Z M877.792523,733.156915 L812.317493,750.500987 L788.08631,710.230912 L799.128473,691.175329 L883.183321,707.70343 L877.792523,733.156915 Z M929.087329,719.558653 L878.384993,733.007533 L883.709711,707.804019 L929.01374,716.708385 C928.851543,717.640708 928.868814,718.60531 929.087329,719.558653 Z M936.163925,710.383297 C934.78525,710.426836 933.397565,710.835947 932.170574,711.678942 C930.562872,712.77566 929.522858,714.409103 929.113611,716.179167 L883.812586,707.271798 L915.87428,555.33608 L936.850259,549.125844 L936.163925,710.383297 Z M939.758541,711.164737 C938.813894,710.679058 937.76562,710.421581 936.718098,710.393806 L937.393168,548.972708 L998.16073,530.98682 L1020.98771,560.892488 L939.758541,711.164737 Z M942.862061,714.004496 C942.777959,713.88439 942.719388,713.764284 942.637538,713.644178 C941.989501,712.69534 941.152985,711.956687 940.233869,711.407952 L1021.36016,561.361653 L1042.71535,589.338867 L1040.45961,659.836645 L942.862061,714.004496 Z M1079.84044,637.979586 L1041.0288,659.53713 L1043.24775,590.035483 L1079.84044,637.979586 Z M1080.33304,637.722859 L1043.27328,589.165464 L1045.2249,527.963149 C1047.01732,527.915106 1048.8473,527.438435 1050.47978,526.482841 L1107.17214,622.832706 L1080.33304,637.722859 Z M1128.2127,700.44752 L1080.66194,638.165751 L1107.43046,623.295865 L1135.57765,671.127369 L1128.2127,700.44752 Z M1135.96512,671.784199 L1235.50377,840.97391 L1128.64072,701.003011 L1135.96512,671.784199 Z M1153.06038,601.492854 L1135.76387,670.38121 L1107.90578,623.017369 L1150.38638,599.448048 C1150.43219,599.519361 1150.45397,599.553141 1150.49076,599.610942 C1151.1403,600.559029 1152.04965,601.186584 1153.06038,601.492854 Z M1154.92865,592.054016 C1153.85785,591.94592 1152.72022,592.201897 1151.75905,592.863231 C1151.37233,593.128966 1151.03442,593.458507 1150.75583,593.803061 L1054.10218,523.103355 C1056.24078,519.919793 1056.57343,515.772379 1054.82831,512.212735 L1090.9224,493.434146 L1162.92436,537.690992 L1154.92865,592.054016 Z M1156.11209,592.303236 C1155.90258,592.232674 1155.69158,592.168117 1155.46856,592.12608 L1163.43048,538.012276 L1173.77504,544.377899 L1156.11209,592.303236 Z M1198.28331,559.436952 L1158.02466,593.542581 C1157.60941,593.107947 1157.13858,592.775403 1156.6122,592.521679 L1174.24436,544.665403 L1198.28331,559.436952 Z M1217.19128,543.400536 L1198.71734,559.061621 L1174.43885,544.14069 L1183.62476,519.21492 L1217.19128,543.400536 Z M1217.62531,543.051477 L1183.81849,518.679698 L1194.88393,488.648668 L1260.13144,502.363284 C1259.8506,503.637159 1260.05334,505.003366 1260.84555,506.158637 C1260.8846,506.208931 1260.93641,506.280244 1260.97321,506.302764 L1217.62531,543.051477 Z M1338.1512,581.752666 L1324.04232,619.734719 L1218.06534,543.366756 L1261.32163,506.733645 C1262.93534,508.451912 1265.58831,508.802472 1267.60076,507.427257 C1267.82678,507.270369 1268.0423,507.102971 1268.2135,506.904796 L1338.1512,581.752666 Z M1367.52914,502.643281 L1338.36371,581.172403 L1268.58596,506.503191 C1269.93535,504.877255 1270.12157,502.523175 1268.87356,500.677294 C1268.35468,499.930385 1267.66384,499.37039 1266.84835,499.004066 L1306.38687,387.044162 C1308.07342,387.558366 1309.95971,387.504318 1311.63725,386.767167 L1367.52914,502.643281 Z M1367.79046,501.949668 L1312.14487,386.526204 C1312.38516,386.390334 1312.6262,386.252212 1312.871,386.083313 C1314.6837,384.841716 1315.77477,382.96656 1316.05036,380.933013 L1342.95179,384.020491 L1378.0359,474.390573 L1367.79046,501.949668 Z M1378.31299,475.14574 L1475.1416,724.618122 L1368.1171,502.646284 L1378.31299,475.14574 Z M1399.56155,416.422114 L1378.29271,473.619642 L1343.54801,384.07679 L1392.94601,389.721027 L1399.56155,416.422114 Z M1408.78951,391.53613 L1399.8957,415.525072 L1393.50769,389.801347 L1408.78951,391.53613 Z M1409.00051,391.008414 L1393.37103,389.224088 L1385.45266,357.35018 L1425.95836,345.296782 L1409.00051,391.008414 Z M1479.01631,399.016488 L1409.54793,391.062462 L1426.6109,345.113621 L1479.2964,329.461544 L1479.01631,399.016488 Z M1493.06212,324.836708 L1479.83856,328.752918 L1479.86559,320.602968 L1493.06212,324.836708 Z M1480.03379,284.235592 L1542.41356,310.172504 L1493.97973,324.56722 L1479.88136,320.023456 L1480.03379,284.235592 Z M1479.49389,284.011143 L1479.33319,319.856809 L1440.60791,307.431082 L1453.35614,273.134034 L1479.49389,284.011143 Z M1477.75177,207.439 C1478.41032,207.652939 1479.11318,207.788058 1479.81678,207.830095 L1479.49689,283.417369 L1453.54687,272.648355 L1477.75177,207.439 Z M1377.06798,221.155867 L1472.80026,202.036477 C1473.01877,202.918507 1473.35518,203.760751 1473.90185,204.545944 C1474.76314,205.810061 1475.94658,206.71461 1477.24566,207.263345 L1453.02724,272.429912 L1374.23178,239.652958 L1377.06798,221.155867 Z M1349.71075,222.378698 L1381.06733,191.644297 L1376.59265,220.681448 L1351.46187,225.69813 C1351.24936,224.825859 1350.90319,223.976859 1350.36254,223.189414 C1350.1688,222.893653 1349.94278,222.638427 1349.71075,222.378698 Z M1342.0597,234.669305 C1344.14198,235.281095 1346.47582,234.964316 1348.39665,233.650655 C1349.57183,232.851199 1350.43387,231.772496 1350.97979,230.583446 L1373.61979,239.994509 L1367.55392,279.310491 C1366.45383,279.197891 1365.2734,279.429095 1364.26417,280.119706 C1363.03868,280.958196 1362.31556,282.270355 1362.18039,283.648573 L1326.51507,282.08269 L1342.0597,234.669305 Z M1338.95017,232.870716 C1339.70109,233.586098 1340.59918,234.150597 1341.54458,234.483141 L1325.95189,282.045156 L1315.48267,281.577493 L1314.84364,256.18256 L1338.95017,232.870716 Z M1338.12492,231.915873 C1338.25258,232.109544 1338.41628,232.304716 1338.56346,232.461605 L1314.83613,255.450663 L1314.66718,248.471748 L1338.12492,231.915873 Z M1336.8341,229.126408 C1337.02033,229.923613 1337.33421,230.731326 1337.80804,231.463223 L1314.64991,247.844194 L1314.34504,235.601629 L1336.8341,229.126408 Z M1314.31125,233.291088 L1314.23015,228.190332 L1336.64938,227.728674 C1336.66365,228.00717 1336.67716,228.303682 1336.72147,228.589684 L1314.32401,235.053645 L1314.28647,233.291088 L1314.31125,233.291088 Z M1284.98588,244.101387 L1313.81114,235.760019 L1314.11901,248.233037 L1272.67392,277.526164 L1284.98588,244.101387 Z M1242.53907,256.391995 L1284.33784,244.290554 L1271.89222,278.077151 L1270.99113,278.715215 L1242.53907,256.391995 Z M1201.88694,276.57057 L1202.95474,269.270371 L1203.18076,267.78631 L1241.89328,256.576658 L1270.52781,279.039501 L1269.78892,279.567218 L1201.88694,276.57057 Z M1193.50526,333.485849 L1194.32225,327.943703 L1198.60921,329.883416 L1193.50526,333.485849 Z M1193.39788,334.229005 L1199.1769,330.140143 L1225.40175,342.004374 L1197.13216,369.378056 L1188.34424,368.54557 L1193.39788,334.229005 Z M1148.56767,307.240414 L1193.80037,327.712499 L1192.89477,333.905469 L1149.0798,364.906355 L1103.37853,360.677119 L1148.56767,307.240414 Z M1138.73448,302.788981 L1148.06006,307.00921 L1102.71097,360.608058 L1065.34258,357.147501 L1138.73448,302.788981 Z M1049.53964,314.150268 L1117.83434,293.337382 L1138.17505,302.541263 L1064.54962,357.07769 L1043.4122,355.111703 L1042.58544,354.559966 L1049.53964,314.150268 Z M1021.17393,322.803912 L1048.96369,314.328926 L1042.09059,354.230424 L1013.32014,334.984172 L1021.17393,322.803912 Z M1003.26168,328.258981 L1020.36295,323.044125 L1012.86809,334.679403 L1003.26168,328.258981 Z M981.463449,334.897846 L1002.59186,328.46166 L1012.57374,335.138058 L1004.09218,348.292679 L981.463449,334.897846 Z M980.7651,335.123796 L1003.80158,348.749833 L1002.16459,351.287825 L978.424507,349.077873 L973.134332,337.442594 L980.7651,335.123796 Z M969.306933,328.999135 L969.816802,328.63131 L980.150854,334.746963 L972.911311,336.957666 L969.306933,328.999135 Z M968.850378,329.32192 L972.393932,337.113053 L950.871289,343.681355 C950.720356,343.298517 950.525119,342.924687 950.311109,342.550857 L968.850378,329.32192 Z M929.73837,332.192456 L942.748673,312.605403 L968.067177,327.593143 L968.617595,328.814472 L950.029517,342.089199 C947.666397,338.715719 943.022005,337.847952 939.612113,340.174257 C939.330521,340.367928 939.087977,340.578865 938.850688,340.797308 L929.73837,332.192456 Z M929.435002,332.644355 L938.46472,341.165133 C937.33685,342.298634 936.65352,343.739907 936.442513,345.270509 L921.666065,344.347194 L929.435002,332.644355 Z M878.960942,320.636748 L906.89262,311.364557 L929.03026,332.263019 L921.033797,344.30891 L888.712287,342.291127 L878.960942,320.636748 Z M828.929922,337.254178 L878.443564,320.807899 L888.08903,342.24909 L829.11014,338.579098 C829.11014,338.126448 829.044811,337.688061 828.929922,337.254178 Z M827.869634,341.763411 C828.060365,341.553976 828.237581,341.329528 828.399027,341.064544 L870.283402,364.884586 L855.01811,368.785782 L827.869634,341.763411 Z M823.065298,343.218196 C824.371885,343.559748 825.782849,343.364576 826.986561,342.540347 C827.166029,342.415737 827.329728,342.281369 827.491174,342.146249 L854.412875,368.947175 L812.729744,379.654634 L823.065298,343.218196 Z M821.591258,342.607907 C821.899132,342.788817 822.21902,342.949459 822.525392,343.07557 L812.115498,379.814525 L790.023664,385.512058 L821.591258,342.607907 Z M821.16549,342.258098 L789.184895,385.715488 L731.821968,400.457761 L730.892339,393.984793 L820.221594,341.234194 C820.231356,341.253711 820.231356,341.253711 820.235861,341.27548 C820.520457,341.674082 820.832836,341.970594 821.16549,342.258098 Z M791.105728,320.322971 L805.295714,305.353247 L821.962208,334.274796 C821.814278,334.355117 821.657338,334.424178 821.511661,334.530021 C820.932708,334.919615 820.467893,335.439074 820.112712,336.002072 L791.105728,320.322971 Z M790.708495,320.721573 L819.861907,336.474989 C819.731248,336.796273 819.593831,337.122061 819.529253,337.476374 L780.94814,331.00791 L790.708495,320.721573 Z M770.715461,309.913525 L790.230164,320.45809 L780.312868,330.90657 L747.163102,325.354666 L770.715461,309.913525 Z M718.216192,307.051247 L735.048637,290.659767 L770.158284,309.626021 L746.366385,325.208286 L720.227885,320.850687 L718.216192,307.051247 Z M706.429875,318.532639 L717.73711,307.520411 L719.668456,320.750849 L706.429875,318.532639 Z M705.951544,319.000302 L719.742045,321.30634 L722.57824,340.787549 L680.964193,368.053135 L670.388347,353.633647 L705.951544,319.000302 Z M638.931888,310.734 C639.793184,310.036634 640.351863,309.093801 640.595158,308.05113 L705.284734,318.886202 L670.063202,353.190756 L638.931888,310.734 Z M634.601378,311.68434 C635.892196,312.033398 637.303159,311.841228 638.517384,311.065793 L669.671226,353.578098 L663.799844,359.291395 L630.261857,324.765395 L634.601378,311.68434 Z M616.047841,310.137223 L631.110387,307.963302 C631.229031,308.596862 631.487345,309.192138 631.858296,309.734117 C632.428238,310.573358 633.20393,311.178393 634.081746,311.52595 L629.843599,324.334515 L616.047841,310.137223 Z M615.374273,310.234058 L629.656621,324.925286 L612.586137,376.452305 L578.485716,315.55626 L615.374273,310.234058 Z M569.694037,299.868902 L582.412235,276.316846 L614.92748,309.763393 L578.211633,315.074334 L569.694037,299.868902 Z M569.373398,300.42139 L577.6492,315.154655 L564.334026,317.056085 C564.22214,316.443544 563.971336,315.845265 563.584616,315.286772 C563.19264,314.708761 562.686525,314.23134 562.12259,313.90405 L569.373398,300.42139 Z M533.122365,246.598093 L537.404816,243.309438 L569.071531,299.862897 L561.637501,313.644321 C560.544173,313.12261 559.311175,313.049045 558.140503,313.411615 L533.122365,246.598093 Z M523.532466,253.937326 L532.678576,246.922379 L557.61937,313.588772 C557.349042,313.716385 557.08397,313.847 556.83692,314.015149 C555.561871,314.886668 554.848505,316.24687 554.750886,317.698653 L528.949546,317.32182 L523.532466,253.937326 Z M447.845782,311.998117 L523.01734,254.341934 L528.405135,317.314313 L449.255244,316.195825 C449.216197,314.789833 448.800942,313.356066 447.949408,312.110716 C447.926881,312.078438 447.875068,312.033398 447.845782,311.998117 Z M443.585858,323.643905 C444.414114,323.43522 445.224348,323.082408 445.979766,322.571958 C447.990708,321.198244 449.121582,319.013814 449.243981,316.749814 L528.454695,317.842029 L531.277374,350.837427 L465.993075,427.561955 L443.585858,323.643905 Z M463.138107,518.756265 L432.987484,467.205225 L465.70097,428.741997 L482.158711,505.147493 L463.138107,518.756265 Z M488.833569,536.068058 L477.060769,542.550034 L463.412941,519.23669 L482.294626,505.720249 L488.833569,536.068058 Z M511.377452,523.652841 L489.334427,535.780554 L482.778964,505.37044 L522.215366,477.176284 L511.377452,523.652841 Z M500.884957,575.645271 C500.581589,575.46361 500.260198,575.328491 499.929797,575.218143 L511.855032,524.016162 L540.656266,508.173416 L540.762144,508.334809 C541.108315,508.840756 541.508551,509.236355 541.998146,509.565897 L500.884957,575.645271 Z M586.752507,551.603032 L503.088133,578.149483 C502.979251,577.807931 502.79753,577.470133 502.573758,577.137589 C502.238852,576.648156 501.810081,576.242048 501.349021,575.914759 L542.450195,509.856403 C543.994821,510.69039 545.955453,510.665618 547.509841,509.60418 C548.689524,508.802472 549.383366,507.604414 549.568091,506.292255 L590.121099,509.868414 L586.752507,551.603032 Z M687.031563,519.80269 L587.299922,551.437886 L590.658752,509.945732 L686.873871,518.449244 C686.882882,518.904146 686.919677,519.342533 687.031563,519.80269 Z M688.139158,515.323483 C687.492623,516.075647 687.073614,516.97344 686.93845,517.892252 L590.718825,509.384236 L596.789949,433.989883 C599.132795,434.142268 601.518443,433.534981 603.584953,432.122984 C604.058779,431.80095 604.507073,431.445886 604.899049,431.048785 L688.139158,515.323483 Z M688.519871,514.957159 L605.30304,430.695223 C608.701668,427.135578 609.387251,421.642976 606.68622,417.315403 L627.286743,403.862019 L689.212962,514.464724 C689.144629,514.509764 689.062029,514.536037 688.991443,514.580326 C688.819484,514.70944 688.68432,514.848313 688.519871,514.957159 Z M589.698336,591.6967 L687.944672,521.619294 C688.423003,522.21457 688.985436,522.65596 689.597429,522.954724 L657.499691,599.46231 L590.956864,595.974729 C590.988403,594.51544 590.578405,593.018618 589.698336,591.6967 Z M602.571222,694.129939 L585.387349,603.117289 C586.175056,602.886085 586.96877,602.544533 587.696404,602.055851 C588.845299,601.271408 589.717108,600.211472 590.26152,599.015666 L646.536375,625.589141 L623.032075,681.541318 L602.571222,694.129939 Z M607.275686,719.103751 L602.671093,694.69669 L622.672388,682.400828 L607.275686,719.103751 Z M596.41975,782.124172 L580.697903,783.777883 L607.076694,720.987915 L614.59783,760.881156 L596.41975,782.124172 Z M618.181934,779.84591 L597.214215,782.046854 L614.725485,761.560507 L618.181934,779.84591 Z M768.901257,688.143401 L699.872911,732.265127 L726.43943,663.285191 L768.941055,683.345912 C768.087268,684.800698 768.050473,686.621806 768.901257,688.143401 Z M772.154208,681.018106 C771.545218,681.148721 770.939983,681.388934 770.382807,681.768769 C769.921746,682.081045 769.543287,682.470639 769.239918,682.887257 L726.633165,662.789753 L747.303523,609.112836 C748.682198,609.554225 750.238087,609.385326 751.537916,608.511554 C753.23723,607.345775 753.970872,605.304721 753.51657,603.398788 L760.545858,601.3187 L772.154208,681.018106 Z M775.633184,681.647162 C774.751613,681.092422 773.723614,680.869475 772.711385,680.972316 L761.067742,601.1483 L850.806244,574.589088 L775.633184,681.647162 Z M915.278807,555.513236 L883.281691,707.17121 L799.404058,690.675387 L869.809577,568.953859 L915.278807,555.513236 Z M915.40496,554.909703 L870.197798,568.279013 L895.773114,524.085223 L925.334271,507.84913 L915.40496,554.909703 Z M936.850259,548.556841 L916.000433,554.728793 L925.947015,507.506077 L937.037987,501.415947 L936.850259,548.556841 Z M997.816062,530.516154 L937.393168,548.417218 L937.590658,501.123939 L964.214247,486.505525 L997.816062,530.516154 Z M998.361975,530.338247 L964.695581,486.224027 L980.193656,477.716011 L1035.56291,511.529631 C1034.13017,513.977544 1033.72843,516.921645 1034.40876,519.691592 L998.361975,530.338247 Z M1021.25728,560.352011 L998.72016,530.819422 L1034.53942,520.214804 C1034.86306,521.257475 1035.33689,522.243846 1035.97216,523.189682 C1036.9506,524.604682 1038.1911,525.709658 1039.57879,526.500106 L1021.25728,560.352011 Z M1044.694,527.969154 L1042.75815,588.494371 L1021.62974,560.81517 L1040.05111,526.777101 C1041.49662,527.499989 1043.07053,527.892586 1044.694,527.969154 Z M1052.65217,509.186812 C1049.89031,506.493432 1045.92925,505.501806 1042.28583,506.453647 L1027.00627,457.225159 C1027.28711,457.07878 1027.59648,456.921891 1027.89084,456.71621 C1028.40296,456.374658 1028.8017,455.945279 1029.1321,455.484371 L1077.47732,485.188862 L1052.65217,509.186812 Z M1090.37048,493.12187 L1054.57901,511.740568 C1054.41907,511.4373 1054.25537,511.142289 1054.04962,510.847279 C1053.73574,510.391626 1053.38506,509.987019 1053.03213,509.586915 L1077.95866,485.474865 L1090.37048,493.12187 Z M1090.94568,492.834366 L1078.34763,485.081517 L1096.1082,467.88983 L1119.1124,472.720347 L1123.48571,475.894902 L1090.94568,492.834366 Z M1163.02123,537.115233 L1091.47958,493.161655 L1123.98732,476.24396 L1167.363,507.49857 L1163.02123,537.115233 Z M1183.1637,518.892135 L1173.96502,543.854687 L1163.51683,537.435767 L1167.87137,507.868647 L1183.1637,518.892135 Z M1194.34403,488.539072 L1183.36044,518.351658 L1167.94796,507.247849 L1171.42093,483.721316 L1194.34403,488.539072 Z M1194.53626,488.021114 L1171.49002,483.184592 L1176.25606,450.843021 L1202.50569,466.396011 L1194.53626,488.021114 Z M1260.6368,501.049623 C1260.49037,501.29434 1260.37023,501.571334 1260.27786,501.825058 L1195.07316,488.134464 L1202.98102,466.673005 L1257.68046,499.065621 L1260.6368,501.049623 Z M1265.98029,498.700798 C1264.69248,498.405788 1263.29728,498.612971 1262.12135,499.410175 C1261.69709,499.696178 1261.34716,500.042233 1261.05806,500.443838 L1258.10548,498.700798 L1204.41075,462.792077 L1217.35573,427.666297 L1295.99124,386.752154 L1265.98029,498.700798 Z M1305.85598,386.864753 L1266.98426,497.062851 L1296.6543,386.401594 L1302.09241,383.582103 C1302.18627,383.751003 1302.28914,383.94017 1302.40328,384.114324 C1303.29537,385.407716 1304.52311,386.34004 1305.85598,386.864753 Z M1309.25536,372.376955 C1307.58983,372.228324 1305.86649,372.637435 1304.37743,373.655334 C1303.42002,374.31817 1302.65409,375.163416 1302.10742,376.110753 L1299.69024,375.017037 L1314.90221,318.300684 C1314.9743,318.330711 1315.03738,318.341971 1315.11472,318.337467 L1309.25536,372.376955 Z M1315.7515,377.485968 C1315.53899,376.838146 1315.23637,376.200082 1314.83613,375.624324 C1313.62792,373.851257 1311.76941,372.760544 1309.79526,372.448268 L1315.64412,318.408029 C1316.22232,318.428297 1316.81329,318.355483 1317.39975,318.161812 L1337.86811,370.914663 L1315.7515,377.485968 Z M1342.73853,383.452989 L1316.12245,380.399292 C1316.19303,379.603589 1316.10217,378.792122 1315.90093,378.005427 L1338.05584,371.419109 L1342.73853,383.452989 Z M1392.78607,389.161032 L1343.33851,383.500281 L1338.58073,371.247958 L1384.94504,357.501064 L1392.78607,389.161032 Z M1426.20015,344.669228 L1385.32801,356.826968 L1368.43549,288.744825 C1368.88904,288.613459 1369.33734,288.409279 1369.73907,288.138289 C1370.59887,287.555775 1371.22363,286.76908 1371.55177,285.869785 L1439.91181,307.79065 L1426.20015,344.669228 Z M1440.42168,307.951292 L1479.34446,320.440074 L1479.30616,328.912809 L1426.84969,344.487568 L1440.42168,307.951292 Z M1326.33635,282.611907 L1362.13308,284.1883 C1362.15561,285.107862 1362.4342,286.049194 1362.99138,286.868167 C1364.12075,288.513621 1366.08288,289.256777 1367.9091,288.904716 L1384.81363,356.970345 L1338.37723,370.762279 L1317.89235,317.980151 C1318.15517,317.875809 1318.40297,317.737687 1318.64326,317.577045 C1320.86521,316.048695 1321.42013,313.025775 1319.9138,310.819576 C1319.3356,309.981836 1318.5509,309.392565 1317.65506,309.026241 L1326.33635,282.611907 Z M1315.49018,282.109714 L1325.77542,282.577377 L1317.15045,308.885867 C1316.82906,308.797289 1316.4934,308.743241 1316.13822,308.725976 L1315.49018,282.109714 Z M1314.95778,282.117971 L1315.60206,308.734233 C1314.76029,308.769515 1313.902,309.020236 1313.14808,309.535191 C1312.64647,309.881247 1312.22822,310.321135 1311.89857,310.795554 L1282.35468,287.623334 L1289.23304,280.965703 L1314.95778,282.117971 Z M1314.32176,256.69226 L1314.93601,281.566984 L1289.77294,280.448496 L1314.32176,256.69226 Z M1271.9553,279.470382 L1272.34202,278.420955 L1314.13553,248.863594 L1314.31125,255.962615 L1289.03404,280.411714 L1272.22187,279.673812 L1271.9553,279.470382 Z M1271.68647,280.193271 L1272.01387,280.20378 L1281.53468,287.670626 L1261.9509,306.627873 L1271.68647,280.193271 Z M1270.65998,279.608504 L1270.96785,279.390061 L1271.28774,279.639281 L1270.65998,279.608504 Z M1225.82226,341.593761 L1199.69578,329.778324 L1269.92633,280.112199 L1271.12028,280.165496 L1261.05356,307.500143 L1225.82226,341.593761 Z M1197.83201,369.423846 L1225.92063,342.246088 L1241.04625,349.077873 L1198.43575,369.483899 L1197.83201,369.423846 Z M1198.53412,370.032634 L1236.70598,373.567507 L1226.74814,400.604141 L1181.93821,412.119313 L1186.63967,380.285191 L1195.9307,371.271228 L1198.53412,370.032634 Z M1187.4484,374.752053 L1188.27966,369.096557 L1196.62154,369.872743 L1195.59805,370.826836 L1187.4484,374.752053 Z M1187.34853,375.386363 L1194.38683,372.012883 L1186.75456,379.415923 L1187.34853,375.386363 Z M1149.89529,364.972414 L1192.78964,334.647125 L1187.80283,368.507286 L1149.89529,364.972414 Z M1149.23974,365.475358 L1187.72699,369.041008 L1186.8334,375.017037 L1120.5977,406.737058 L1105.31889,396.513777 L1149.23974,365.475358 Z M1102.94376,361.171056 L1148.38145,365.386029 L1104.83305,396.192493 L1084.71386,382.736106 L1102.94376,361.171056 Z M1064.69605,357.642188 L1102.29872,361.128268 L1084.26332,382.431337 L1056.38345,363.786366 L1064.69605,357.642188 Z M1044.37261,355.756523 L1063.87755,357.561117 L1055.90512,363.469586 L1044.37261,355.756523 Z M1042.40748,355.576363 L1043.24399,355.647676 L1055.4358,363.808886 L1044.27349,372.086448 L1040.0008,369.555963 L1042.40748,355.576363 Z M1004.56151,348.572676 L1013.02504,335.439074 L1041.99147,354.816692 L1041.96068,354.976584 L1010.44415,352.051249 L1004.56151,348.572676 Z M1002.77208,351.343374 L1004.26489,349.023825 L1009.18562,351.937149 L1002.77208,351.343374 Z M1002.43492,351.861332 L1010.26769,352.581968 L1039.40082,369.840464 L1038.24967,376.546138 L1012.76297,395.423064 L992.995206,381.180732 L989.089712,372.569875 L1002.43492,351.861332 Z M978.679817,349.655883 L1001.83194,351.800528 L988.820135,371.983607 L978.679817,349.655883 Z M948.876867,351.976934 C949.28311,351.620369 949.639043,351.245037 949.938657,350.815658 L985.804472,376.663992 L977.476105,389.582154 L948.876867,351.976934 Z M943.860774,353.909141 C945.330309,353.916647 946.807353,353.48952 948.103427,352.604488 C948.229581,352.518912 948.345972,352.434088 948.460111,352.337252 L977.170484,390.059576 L960.687212,415.630915 L940.714452,404.277135 L943.860774,353.909141 Z M936.619729,348.388013 C936.814966,349.17621 937.152125,349.918615 937.645474,350.635499 C938.995614,352.611995 941.120696,353.737989 943.300594,353.884369 L940.198576,403.980623 L908.338877,385.876881 L902.572623,373.080326 L915.350894,353.847586 L936.619729,348.388013 Z M921.322898,344.850138 L936.354657,345.785464 C936.31636,346.481329 936.359162,347.179446 936.486817,347.857294 L915.789427,353.175743 L921.322898,344.850138 Z M888.959337,342.833857 L920.695136,344.813355 L915.004724,353.373918 L895.921043,358.285507 L888.959337,342.833857 Z M828.635564,340.596881 C828.865343,340.132971 829.005013,339.626273 829.069591,339.120326 L888.350347,342.812088 L895.381138,358.428133 L871.038069,364.675151 L828.635564,340.596881 Z M855.467155,369.25795 L870.944205,365.255414 L897.205854,380.173342 L884.950968,398.619387 L855.467155,369.25795 Z M812.559287,380.279186 L854.858917,369.413337 L884.644596,399.073538 L860.227938,435.825255 L800.173742,423.961024 L812.559287,380.279186 Z M789.520552,386.20492 L811.955553,380.436074 L799.641346,423.864188 L766.591451,417.321408 L789.520552,386.20492 Z M731.915832,401.013252 L788.690044,386.413605 L766.000483,417.214064 L733.343316,410.770371 L731.915832,401.013252 Z M731.383435,401.133358 L732.771121,410.641257 L716.389973,407.408902 C716.471072,406.624459 716.42827,405.81074 716.250304,405.036056 L731.383435,401.133358 Z M731.30459,400.608645 L716.119645,404.502334 C715.956697,404.002393 715.756954,403.526472 715.528677,403.067066 L730.379466,394.283557 L731.30459,400.608645 Z M780.505102,331.492088 L819.443649,337.998836 C819.338521,338.938666 819.506726,339.900265 819.954269,340.772536 L730.798475,393.397775 L729.600019,385.183268 L780.505102,331.492088 Z M746.486531,325.793053 L779.871332,331.393751 L729.513664,384.524936 L723.17071,341.051032 L746.486531,325.793053 Z M720.320998,321.407679 L745.701827,325.662438 L723.098622,340.46026 L720.320998,321.407679 Z M681.279576,368.481013 L722.678111,341.383576 L729.022568,385.012117 L713.86766,401.017756 C711.355108,398.774775 707.571262,398.457995 704.668235,400.414973 L681.279576,368.481013 Z M680.823021,368.788785 L704.240966,400.761029 C704.222944,400.768536 704.18615,400.797812 704.152359,400.81808 L676.075755,371.911544 L680.823021,368.788785 Z M664.181307,359.674233 L669.992616,354.020239 L680.497126,368.350398 L675.674017,371.512942 L664.181307,359.674233 Z M689.685286,514.217005 L627.742546,403.564005 L675.589915,372.217064 L703.728093,401.185154 C701.098399,403.674353 700.568255,407.784984 702.682824,410.882971 C703.859503,412.60274 705.623396,413.679191 707.505181,414.032753 L692.194834,513.789878 C691.356066,513.689289 690.496271,513.819154 689.685286,514.217005 Z M658.070385,599.483329 L690.108801,523.166411 C691.421395,523.634074 692.911955,523.51622 694.177242,522.782072 L745.897065,600.626589 C744.778206,601.46508 744.118154,602.689411 743.971726,603.969292 L658.070385,599.483329 Z M657.847364,600.017801 L743.921415,604.509019 C743.931928,605.304721 744.144436,606.077905 744.546174,606.806048 L685.269172,643.263504 L647.243734,625.312146 L657.847364,600.017801 Z M646.751136,625.07869 L590.480035,598.505215 C590.718825,597.882164 590.876517,597.210321 590.932084,596.502446 L657.280425,599.972761 L646.751136,625.07869 Z M623.827291,681.050385 L647.025218,625.81509 L684.734523,643.60956 L623.827291,681.050385 Z M706.272184,653.77579 L615.058139,760.357944 L607.449147,720.058594 L623.463098,681.909143 L685.30897,643.883552 L706.272184,653.77579 Z M706.645387,653.341907 L685.875909,643.545003 L744.816502,607.288724 C745.001226,607.548454 745.198716,607.805931 745.435254,607.995098 L706.645387,653.341907 Z M746.803415,608.913159 L726.146574,662.557798 L707.147747,653.583621 L745.861772,608.354666 C746.168144,608.577613 746.480523,608.775037 746.803415,608.913159 Z M749.756002,599.739305 C748.623626,599.506599 747.428174,599.705525 746.363381,600.334581 L694.64431,522.48556 C696.189687,521.328788 696.8595,519.379316 696.481792,517.588984 L746.363381,503.950936 L756.722213,575.127313 L749.756002,599.739305 Z M751.019787,600.204716 C750.782499,600.078605 750.527189,599.966756 750.257611,599.878928 L756.915949,576.429714 L758.697863,588.655764 L751.019787,600.204716 Z M752.330129,601.180578 C752.081577,600.909589 751.799985,600.673881 751.495114,600.477207 L758.813504,589.464979 L759.661283,595.253342 L752.330129,601.180578 Z M752.891811,601.931241 C752.86628,601.894459 752.839998,601.809634 752.807709,601.76009 C752.769412,601.708294 752.715346,601.667759 752.675548,601.607706 L759.746137,595.864382 L760.058516,598.015782 L752.891811,601.931241 Z M760.464759,600.758706 L753.356625,602.874074 C753.309318,602.724692 753.249245,602.558796 753.171901,602.40491 L760.138113,598.581032 L760.464759,600.758706 Z M851.32137,573.87821 L760.985892,600.611576 L760.661498,598.289775 L880.323848,532.553454 L851.32137,573.87821 Z M894.862257,524.582162 L869.454395,568.507966 L852.152629,573.625987 L881.41192,531.965684 L894.862257,524.582162 Z M895.396156,523.677613 L882.123033,530.971806 L933.483169,457.8377 L895.396156,523.677613 Z M925.480698,507.157019 L896.311518,523.179172 L935.354442,455.693056 C935.663817,455.843939 935.940904,455.95804 936.262294,456.043615 L925.480698,507.157019 Z M937.053756,500.792897 L926.108461,506.804207 L936.790186,456.148708 C936.935112,456.17348 937.087547,456.202005 937.239982,456.196 L937.053756,500.792897 Z M963.892105,486.056629 L937.596665,500.497886 L937.776884,456.192997 C938.649444,456.160719 939.491967,455.891981 940.26015,455.368769 C940.298447,455.342496 940.355516,455.304212 940.386304,455.283944 L963.892105,486.056629 Z M979.646241,477.406737 L964.346407,485.799902 L940.80306,454.948398 C941.08315,454.678159 941.309926,454.419931 941.508166,454.103902 L979.646241,477.406737 Z M980.203418,477.096714 L941.789758,453.655005 C942.123914,453.044716 942.300379,452.378127 942.357448,451.703281 L1020.30963,452.91335 C1020.33817,453.564175 1020.49511,454.197735 1020.78496,454.805772 L980.203418,477.096714 Z M1026.47162,457.380546 L1041.76094,506.579759 C1040.7412,506.893536 1039.756,507.365703 1038.83914,507.988753 C1037.59413,508.837753 1036.59241,509.876671 1035.83249,511.065721 L980.74032,477.425504 L1021.06055,455.277939 C1021.07106,455.345499 1021.10936,455.401048 1021.14915,455.452093 C1022.35437,457.217653 1024.53276,457.93904 1026.47162,457.380546 Z M1028.0658,448.84926 C1027.57846,448.488191 1027.04006,448.234467 1026.47387,448.063316 L1032.92571,410.626995 L1049.9992,422.933366 L1028.0658,448.84926 Z M1029.01571,449.78909 C1028.85576,449.561639 1028.68456,449.352204 1028.49082,449.1773 L1050.44599,423.244141 L1058.42593,428.984462 L1029.01571,449.78909 Z M1029.39267,450.384366 C1029.35587,450.325064 1029.34761,450.287531 1029.32208,450.249247 L1058.89075,429.33352 L1064.67652,433.498199 L1029.39267,450.384366 Z M1029.78164,451.247629 C1029.71256,451.114011 1029.70505,450.990902 1029.63746,450.852029 L1065.18414,433.869777 L1073.6304,439.96291 L1029.78164,451.247629 Z M1095.46392,467.768223 L1077.87531,484.791011 L1029.42045,455.008451 C1029.59241,454.693172 1029.72607,454.333605 1029.83721,453.956772 L1095.46392,467.768223 Z M1095.93324,467.294554 L1029.94158,453.44557 C1030.03094,452.899838 1030.03094,452.332337 1029.92206,451.764836 L1074.22587,440.375024 L1102.6126,460.830594 L1095.93324,467.294554 Z M1118.02207,471.952419 L1096.57001,467.429674 L1103.07291,461.160135 L1118.02207,471.952419 Z M1119.32791,472.215151 L1103.44837,460.775796 L1137.45342,427.900504 L1174.0664,449.561639 L1127.31236,473.901141 L1119.32791,472.215151 Z M1124.04889,475.613403 L1120.43325,472.998844 L1126.56295,474.311753 L1124.04889,475.613403 Z M1170.88253,483.604963 L1167.46062,506.912302 L1124.53023,475.950451 L1127.39421,474.459634 L1170.88253,483.604963 Z M1175.73718,450.548011 L1170.96738,483.055477 L1128.15112,474.067788 L1174.63258,449.900188 L1175.73718,450.548011 Z M1175.93542,449.217085 L1175.84005,449.976756 L1175.20027,449.615687 L1175.93542,449.217085 Z M1176.58796,444.834714 L1176.04355,448.549745 L1174.63709,449.272634 L1137.8469,427.498899 L1142.73083,422.759212 L1143.34358,422.593316 L1176.58796,444.834714 Z M1176.67281,444.234934 L1144.04043,422.419162 L1181.28266,412.854963 L1176.67281,444.234934 Z M1202.69642,465.887061 L1176.31913,450.280024 L1176.54065,448.903308 L1179.98734,447.103968 L1203.75821,463.007517 L1202.69642,465.887061 Z M1204.21927,463.315289 L1249.60665,493.674358 L1203.17175,466.173064 L1204.21927,463.315289 Z M1216.63861,428.038626 L1203.94744,462.479801 L1180.5355,446.820968 L1216.63861,428.038626 Z M1179.46095,446.754159 L1176.61724,448.234467 L1177.07305,445.159 L1179.46095,446.754159 Z M1185.96986,380.891727 L1181.37653,412.270196 L1143.52004,422.008549 L1185.96986,380.891727 Z M1121.12709,407.086117 L1186.77033,375.673867 L1186.11628,380.020958 L1143.01693,421.730053 L1121.12709,407.086117 Z M1120.5579,407.36161 L1142.62496,422.116645 L1142.46952,422.266777 L1133.09964,424.68091 L1111.31417,411.785268 L1120.5579,407.36161 Z M1104.84507,396.852326 L1120.02851,407.006546 L1110.74949,411.447469 L1096.29143,402.892912 L1104.84507,396.852326 Z M1084.36469,383.154225 L1104.36073,396.526538 L1095.78531,402.594899 L1077.22802,391.599186 L1084.36469,383.154225 Z M1044.7766,372.37095 L1055.92089,364.135424 L1083.91339,382.849456 L1076.74744,391.311682 L1044.7766,372.37095 Z M1058.90276,428.661676 L1050.80568,422.823769 L1076.86458,392.002292 L1095.29572,402.931196 L1058.90276,428.661676 Z M1065.22995,433.222706 L1059.36758,429.009233 L1095.8206,403.243472 L1110.16603,411.722212 L1065.22995,433.222706 Z M1074.33626,439.789507 L1065.73606,433.595034 L1110.72771,412.05926 L1132.34272,424.858817 L1074.33626,439.789507 Z M1133.77395,425.069753 L1141.6758,423.033204 L1137.35581,427.191127 L1133.77395,425.069753 Z M1136.96083,427.589729 L1103.00984,460.466523 L1074.9092,440.213631 L1133.03956,425.266427 L1136.96083,427.589729 Z M1013.22027,395.749602 L1038.10775,377.333584 L1032.53448,409.681159 L1013.22027,395.749602 Z M1012.75846,396.097159 L1032.43461,410.274934 L1025.94448,447.934202 C1025.11322,447.790074 1024.24967,447.87565 1023.42967,448.187926 L1003.04316,403.299021 L1012.75846,396.097159 Z M993.447255,382.170106 L1012.29064,395.749602 L1002.80737,402.781064 L993.447255,382.170106 Z M961.16254,415.891395 L977.513651,390.522735 L992.602479,410.348499 L974.717254,423.5947 L961.16254,415.891395 Z M1020.86155,450.455679 C1020.55068,451.053958 1020.37196,451.69052 1020.32465,452.370621 L942.371715,451.156798 C942.351441,450.340077 942.097632,449.515849 941.620803,448.789958 L974.759305,424.260538 L1020.86155,450.455679 Z M993.362402,410.47461 L1002.59487,403.62556 L1022.93708,448.401865 C1022.76361,448.4987 1022.59616,448.579021 1022.42495,448.692371 L993.362402,410.47461 Z M1022.01571,449.020411 C1021.67554,449.312419 1021.37217,449.621692 1021.13414,449.99252 L975.223369,423.88821 L992.925371,410.773374 L1022.01571,449.020411 Z M960.868933,416.3493 L974.241927,423.948263 L941.314431,448.334305 C941.120696,448.086586 940.90218,447.87565 940.673903,447.675973 L960.868933,416.3493 Z M940.689672,404.883671 L960.398111,416.07756 L940.226359,447.368202 C939.581326,446.93582 938.855194,446.646814 938.090765,446.555984 L940.689672,404.883671 Z M908.742117,386.730385 L940.158777,404.602172 L937.553112,446.514698 C936.957639,446.508692 936.367422,446.629549 935.783963,446.818716 L908.742117,386.730385 Z M860.809895,435.943859 L885.032818,399.465385 L933.921701,448.149642 C933.386301,448.72465 933.02361,449.431024 932.831377,450.172679 L860.809895,435.943859 Z M860.48475,436.425034 L932.721744,450.68313 C932.646653,451.247629 932.663173,451.830894 932.772806,452.370621 L831.485275,480.079098 L860.48475,436.425034 Z M800.013798,424.483485 L859.906548,436.309432 L830.685554,480.29604 L780.276073,494.087973 L800.013798,424.483485 Z M757.100673,573.848934 L746.898781,503.792546 L779.481608,494.888931 L757.100673,573.848934 Z M759.149912,587.977915 L757.277888,575.164095 L780.116129,494.712525 L830.219238,481.001663 L759.149912,587.977915 Z M933.997543,454.69017 C934.191279,454.895101 934.4143,455.076011 934.638822,455.257671 L881.027453,531.561077 L760.573642,597.713265 L760.243991,595.473286 L933.997543,454.69017 Z M760.156885,594.858493 L759.274564,588.772867 L831.014454,480.789976 L932.93275,452.904342 C933.082182,453.313454 933.268408,453.730072 933.515458,454.099398 C933.557509,454.165456 933.5913,454.216501 933.661886,454.278056 L760.156885,594.858493 Z M766.255043,417.810841 L799.485907,424.382146 L779.648311,494.258374 L746.803415,503.240058 L739.631454,453.967281 L766.255043,417.810841 Z M733.419158,411.324361 L765.671584,417.700493 L739.526326,453.212114 L733.419158,411.324361 Z M739.15913,454.593334 L746.266513,503.4007 L696.334613,517.071027 C696.18443,516.662666 696.004962,516.247549 695.742143,515.860207 C695.479324,515.469111 695.155681,515.153833 694.808008,514.872334 L739.15913,454.593334 Z M715.120181,402.397475 C714.862618,402.025146 714.577272,401.687347 714.267145,401.378074 L729.135205,385.704979 L730.305876,393.694286 L715.230565,402.596401 C715.18551,402.531093 715.165987,402.465034 715.120181,402.397475 Z M716.302117,407.955385 L732.849216,411.208759 L739.058508,453.844172 L694.401765,514.536037 C693.883636,514.197488 693.331715,513.983549 692.731737,513.858939 L708.027816,414.117578 C709.778192,414.312751 711.586389,413.912647 713.143029,412.854963 C714.879889,411.667414 715.967961,409.876332 716.302117,407.955385 Z M907.928128,386.26122 L935.300376,447.048419 C935.140432,447.158767 934.945195,447.239088 934.78525,447.346432 C934.608035,447.471042 934.460856,447.627931 934.297157,447.7623 L885.348201,399.00748 L897.682683,380.436074 L907.928128,386.26122 Z M902.221947,373.603538 L907.544412,385.438493 L897.974037,379.994684 L902.221947,373.603538 Z M901.956124,373.024777 L897.507721,379.7297 L871.717644,365.063244 L895.613169,358.926573 L901.956124,373.024777 Z M896.133551,358.780944 L914.563187,354.045761 L902.305298,372.491056 L896.133551,358.780944 Z M986.538113,376.519865 L988.740538,373.11861 L992.10988,380.542668 L986.538113,376.519865 Z M992.565684,381.52979 L1002.36434,403.115859 L993.030499,410.027215 L977.82603,390.037806 L986.253517,376.980021 L992.565684,381.52979 Z M1044.30578,372.747782 L1076.39376,391.731302 L1050.35513,422.508491 L1033.03008,410.027215 L1038.73927,376.867422 L1044.30578,372.747782 Z M1039.5022,369.259451 L1011.53673,352.721592 L1041.86757,355.520814 L1039.5022,369.259451 Z M1039.90243,370.127218 L1043.78615,372.441512 L1038.87894,376.075472 L1039.90243,370.127218 Z M1216.9232,427.267695 L1180.00761,446.468156 L1177.16391,444.568979 L1181.86162,412.713088 L1226.52061,401.230194 L1216.9232,427.267695 Z M1296.96518,383.106183 L1296.17372,386.041276 L1217.63582,426.890862 L1227.15288,401.060544 L1296.96518,383.106183 Z M1297.12062,382.512408 L1227.39017,400.439745 L1237.26616,373.61705 L1297.99468,379.244021 L1297.12062,382.512408 Z M1301.39481,381.960671 C1301.50744,382.343509 1301.65988,382.721844 1301.83184,383.09117 L1296.83076,385.687714 L1297.57567,382.946292 L1301.39481,381.960671 Z M1299.54681,375.547756 L1301.85662,376.591928 C1301.49693,377.361358 1301.25063,378.17808 1301.15226,379.018072 L1298.68251,378.780862 L1299.54681,375.547756 Z M1311.66503,315.891056 C1311.73111,316.028427 1311.79719,316.160544 1311.89106,316.299416 C1312.51732,317.208469 1313.40039,317.837525 1314.38709,318.145297 L1299.19614,374.792589 L1245.74171,350.612979 L1247.16619,346.748565 L1311.66503,315.891056 Z M1241.69129,348.776106 L1226.34715,341.835475 L1260.62253,308.66292 L1246.73216,346.364225 L1241.69129,348.776106 Z M1236.90272,373.042042 L1199.46825,369.573228 L1241.69129,349.368379 L1245.05988,350.89748 L1236.90272,373.042042 Z M1245.2446,350.390782 L1242.32806,349.066613 L1246.46784,347.084111 L1245.2446,350.390782 Z M1298.55486,379.298069 L1301.1027,379.539032 C1301.07342,380.177846 1301.12448,380.809905 1301.26265,381.428451 L1297.73561,382.348013 L1298.55486,379.298069 Z M1298.13885,378.730568 L1237.4614,373.103597 L1245.55398,351.118926 L1299.05421,375.323308 L1298.13885,378.730568 Z M1281.92065,287.29079 L1272.9435,280.245817 L1288.48963,280.937928 L1281.92065,287.29079 Z M1311.40747,315.402374 L1247.43426,346.025676 L1261.52588,307.79065 L1281.96045,288.012178 L1311.61848,311.269223 C1310.94416,312.528836 1310.83077,314.05043 1311.40747,315.402374 Z M663.790082,360.056321 L675.20695,371.813958 L627.463207,403.079077 L624.696847,398.1247 L663.790082,360.056321 Z M612.953333,377.10313 L630.077132,325.351663 L663.413124,359.671231 L624.42727,397.635268 L612.953333,377.10313 Z M624.299614,398.512042 L627.029931,403.379342 L606.411386,416.869509 C606.281478,416.681844 606.126791,416.529459 605.987872,416.3493 L624.299614,398.512042 Z M612.701777,377.78248 L624.026282,398.02261 L605.641701,415.926676 C604.389931,414.479398 602.830286,413.420963 601.116705,412.805419 L612.701777,377.78248 Z M558.74724,322.82418 C559.473372,322.947289 560.232544,322.893241 560.947413,322.659785 L593.261413,412.966812 C592.562314,413.261072 591.886493,413.617637 591.239207,414.056024 C586.262162,417.455777 584.971344,424.247027 588.348946,429.23218 L541.382398,462.801085 L537.288425,414.862236 L558.74724,322.82418 Z M556.636426,321.876844 C557.117761,322.241666 557.654663,322.499894 558.217096,322.681554 L537.145001,413.117695 L531.836052,351.013833 L556.636426,321.876844 Z M529.015626,317.875809 L554.731362,318.226369 C554.777919,319.114403 555.02572,319.973912 555.566377,320.764361 C555.769874,321.061623 555.965862,321.30634 556.199396,321.53379 L531.765467,350.266923 L529.015626,317.875809 Z M522.393333,476.385836 L482.655064,504.812698 L466.140254,428.232297 L531.341952,351.609109 L536.745516,414.825454 L522.393333,476.385836 Z M523.063897,475.900907 L536.884434,416.573748 L540.872529,463.174915 L523.063897,475.900907 Z M591.763344,432.448772 C593.14352,433.271499 594.681388,433.794711 596.254549,433.950098 L590.166905,509.328687 L549.610893,505.757032 C549.643933,504.754146 549.395381,503.744504 548.780384,502.852716 C548.461246,502.383552 548.060259,501.989454 547.617221,501.677178 L591.763344,432.448772 Z M547.156161,501.377663 C546.369205,500.934772 545.502653,500.725337 544.618829,500.745605 L541.432709,463.436897 L588.680099,429.67357 C589.424253,430.64718 590.308827,431.491676 591.295526,432.150008 L547.156161,501.377663 Z M540.399454,507.685485 L512.017229,523.317294 L522.900198,476.707119 L540.92284,463.812228 L544.09244,500.794398 C543.366308,500.899491 542.667959,501.154716 542.03494,501.583345 C540.021745,502.955557 539.380466,505.553602 540.399454,507.685485 Z M564.399356,317.610825 L577.903759,315.645589 L612.345094,377.154926 L600.586561,412.63652 C598.392396,411.945159 596.004495,411.984194 593.781796,412.789655 L561.462539,322.507401 C561.759149,322.391798 562.033983,322.222899 562.317827,322.036735 C563.827912,321.007576 564.552542,319.295313 564.399356,317.610825 Z M951.372899,346.563902 C951.408192,345.78096 951.2918,344.984507 951.050007,344.175292 L972.618455,337.606989 L977.795243,349.023825 L951.372899,346.563902 Z M978.067073,349.601836 L988.469459,372.524836 L986.09958,376.20909 L950.252538,350.368263 C950.859275,349.387897 951.224969,348.265655 951.351873,347.131403 L978.067073,349.601836 Z M1374.14092,240.205446 L1452.84852,272.91409 L1440.09804,307.275695 L1371.70046,285.364589 C1372.04663,284.026907 1371.8604,282.590138 1371.02989,281.374814 C1370.32028,280.344154 1369.24047,279.673812 1368.10734,279.393814 L1374.14092,240.205446 Z M1351.57676,226.245363 L1376.50329,221.263212 L1373.70239,239.45178 L1351.20581,230.091011 C1351.6496,228.859172 1351.79828,227.531249 1351.57676,226.245363 Z M1150.14609,598.991645 L1107.63696,622.583485 L1050.94084,526.211101 C1051.0332,526.15405 1051.09703,526.109761 1051.18864,526.046706 C1052.21664,525.341833 1053.08019,524.495836 1053.7913,523.545496 L1150.43219,594.227186 C1149.51533,595.630175 1149.38467,597.434769 1150.14609,598.991645 Z M775.86897,689.804618 C776.888709,689.109504 777.530739,688.106618 777.822844,686.980623 L798.554776,691.049218 L787.779187,709.709952 L775.822414,689.833894 C775.829172,689.826387 775.853201,689.817379 775.86897,689.804618 Z M776.076222,681.956435 L851.648016,574.350377 L869.054159,569.185064 L798.83787,690.57705 L777.918209,686.452907 C778.092421,685.311899 777.847624,684.088318 777.129001,683.038141 C776.841402,682.620021 776.464444,682.259703 776.076222,681.956435 Z M698.763813,733.611066 L683.575865,772.97434 L627.970073,778.803239 L698.763813,733.611066 Z M625.748875,779.604196 L619.45473,783.616491 L618.824714,780.328586 L625.748875,779.604196 Z M618.727096,779.779851 L615.193303,761.035042 L706.78806,654.005493 L725.94533,663.054737 L699.076193,732.75531 L626.770115,778.960127 L618.727096,779.779851 Z M438.626834,323.204016 C440.00626,323.830069 441.559897,324.025992 443.047454,323.758005 L465.546282,428.075408 L432.690123,466.685767 L397.244068,406.077225 L438.626834,323.204016 Z M436.49124,321.756737 C436.996604,322.239414 437.551528,322.630509 438.128229,322.954796 L396.916671,405.52774 L379.688494,376.065714 L436.49124,321.756737 Z M435.515806,320.602968 C435.696775,320.859695 435.907782,321.129183 436.112781,321.349127 L379.41366,375.58604 L376.686347,370.926674 L424.51269,317.614578 L434.249017,317.051581 C434.351892,318.293928 434.767146,319.498743 435.515806,320.602968 Z M431.70793,309.574225 L435.523315,312.118223 C435.153115,312.663955 434.879783,313.236711 434.65526,313.851504 L429.383106,312.187284 L431.70793,309.574225 Z M402.548511,303.731814 L411.934913,296.32352 L431.258885,309.261199 L428.807157,312.018385 L402.548511,303.731814 Z M434.212222,316.512605 L425.020307,317.03882 L428.977614,312.61366 L434.48255,314.35595 C434.290317,315.042056 434.196453,315.779207 434.212222,316.512605 Z M402.049906,304.129666 L428.405419,312.444011 L424.249871,317.078605 L382.704908,319.419923 L402.049906,304.129666 Z M357.737831,338.505533 L348.0383,321.944403 L381.028872,320.051231 L357.737831,338.505533 Z M376.300379,371.338788 L378.999157,375.970379 L330.851423,422.001042 L376.300379,371.338788 Z M376.385983,370.407966 L358.005156,338.963438 L381.981029,320.012196 L423.733995,317.638599 L376.385983,370.407966 Z M328.13162,287.89057 C328.275044,287.809499 328.435739,287.733682 328.588174,287.62934 C330.572835,286.274393 331.947755,284.386475 332.704674,282.298881 L401.405623,303.948756 L381.780535,319.488233 L347.721415,321.412183 L328.13162,287.89057 Z M316.011898,287.43717 C319.364721,289.872321 323.919003,290.255159 327.676567,288.202846 L347.123689,321.433952 L287.320298,324.82695 L316.011898,287.43717 Z M286.163142,325.434987 L284.568956,327.500812 L283.71592,325.570106 L286.163142,325.434987 Z M313.093103,284.30165 C313.19748,284.457788 313.286838,284.626687 313.385959,284.764809 C314.003959,285.676865 314.754872,286.469565 315.563604,287.130899 L286.609184,324.876493 L283.492899,325.052899 L275.091694,305.917745 L313.093103,284.30165 Z M282.906436,325.071666 L242.934634,327.337167 C242.850532,326.428114 242.580954,325.496541 242.1244,324.653546 L274.609608,306.192488 L282.906436,325.071666 Z M265.633956,284.414249 L311.55073,279.908769 C311.708421,281.267469 312.133437,282.594642 312.808507,283.846748 L274.879186,305.416302 L265.633956,284.414249 Z M1201.78857,277.101289 L1269.06128,280.088928 L1199.12959,329.518594 L1194.40861,327.382207 L1201.78857,277.101289 Z M1201.92524,272.45018 L1201.93274,272.454684 L1201.32526,276.545048 L1179.7936,275.586451 C1179.7936,275.250905 1179.73954,274.907851 1179.65468,274.554289 L1202.60256,267.92143 L1202.13774,271.060703 L1201.92524,272.45018 Z M943.103855,714.476663 L1040.44985,660.468703 L1037.24796,760.731775 L943.448523,720.615586 C944.185919,718.663862 944.110077,716.433642 943.103855,714.476663 Z M752.788936,761.84726 C751.382477,762.802103 750.647335,764.358979 750.671364,765.935371 L684.194617,772.908281 L699.528993,733.11713 L769.179845,688.61857 C770.601322,690.580053 773.211492,691.179833 775.32531,690.095875 L787.455544,710.242172 L757.763729,761.582276 C756.240879,760.765554 754.308031,760.80534 752.788936,761.84726 Z M708.976969,850.047926 C708.140453,848.820592 707.080916,847.805695 705.908742,847.059536 L753.222963,770.121069 C753.80492,770.446857 754.444697,770.624013 755.110756,770.687069 L751.32691,894.65308 L709.121144,862.172637 C711.445217,858.586719 711.539832,853.796737 708.976969,850.047926 Z M677.997339,787.510931 L639.193205,888.215393 L623.032075,802.645801 L677.997339,787.510931 Z M622.948724,802.11208 L619.561359,784.191499 L626.948081,779.481088 L683.37387,773.545594 L678.239884,786.881875 L622.948724,802.11208 Z M493.879698,581.143127 L381.392314,618.749849 L375.861095,598.854273 L476.843004,543.287186 L495.879377,575.835939 C495.861355,575.839692 495.846337,575.85921 495.823059,575.868218 C494.071932,577.067027 493.351056,579.194406 493.879698,581.143127 Z M209.763843,168.743066 L187.783143,291.513271 L183.215345,291.96592 L106.102679,239.686737 C106.344473,239.354194 106.510424,238.962347 106.568996,238.522459 C106.626065,238.050292 106.541963,237.594639 106.360242,237.187029 L205.400292,166.006149 C206.537173,167.438414 208.102074,168.375241 209.763843,168.743066 Z M0.935936849,312.49956 C2.44301745,314.716268 5.45567682,315.291276 7.6813803,313.765928 C8.85655774,312.973228 9.57367881,311.722623 9.74939224,310.40596 L181.971084,323.965939 L150.77444,498.215119 C149.627047,498.077748 148.455624,498.316459 147.434383,499.007069 C145.212434,500.531666 144.653005,503.553836 146.175855,505.770544 C147.680682,507.979745 150.700851,508.560759 152.919796,507.044419 C154.800831,505.757032 155.490919,503.392443 154.731747,501.340881 L250.253023,459.537202 L271.431748,648.00169 C270.303878,648.152573 269.188774,648.553427 268.191563,649.232027 C264.760645,651.580851 263.880576,656.266491 266.22192,659.693268 C268.565517,663.128302 273.254963,664.010332 276.681375,661.662257 C279.187169,659.955249 280.336815,657.01265 279.856982,654.209674 L385.072534,634.023592 L429.198382,792.598175 C428.62018,792.809862 428.079523,793.074846 427.556888,793.428408 C424.120714,795.774231 423.245902,800.462873 425.588747,803.890401 C427.934597,807.315676 432.620288,808.203711 436.047451,805.857889 C437.800831,804.660581 438.873134,802.846979 439.223059,800.917024 L558.536985,817.291239 C558.369532,819.003501 558.764511,820.786326 559.803774,822.30792 C561.203474,824.348973 563.408152,825.46521 565.694679,825.580812 L563.870714,1073.55337 C561.637501,1073.48131 559.35623,1074.08859 557.363309,1075.45029 C552.373498,1078.86656 551.09019,1085.67057 554.500081,1090.65272 C557.908472,1095.64463 564.721497,1096.92226 569.703048,1093.515 C574.701119,1090.10999 575.995691,1083.29097 572.5858,1078.30356 C571.749283,1077.07773 570.697256,1076.10412 569.516071,1075.31367 L648.860448,942.384745 L733.817141,1392.62423 C732.445976,1392.91024 731.141642,1393.44246 729.912399,1394.28545 C724.945115,1397.68445 723.641532,1404.49747 727.052925,1409.49088 C730.467323,1414.47303 737.287857,1415.7409 742.255141,1412.35016 C747.249457,1408.9414 748.551539,1402.12388 745.140145,1397.13121 C743.673614,1394.98207 741.528258,1393.51152 739.195925,1392.82541 L831.176651,956.802732 L1017.41937,1100.15312 C1014.84374,1103.78633 1014.59895,1108.76998 1017.28121,1112.69445 C1020.67983,1117.66308 1027.51388,1118.95197 1032.48868,1115.55522 C1037.47999,1112.14646 1038.77306,1105.31393 1035.37368,1100.34228 C1033.88537,1098.17137 1031.77456,1096.7331 1029.47377,1096.02447 L1106.11035,790.764305 L1235.1531,845.939546 C1234.62671,847.357549 1234.76112,848.980483 1235.68099,850.329424 C1237.19858,852.546133 1240.22776,853.103125 1242.43169,851.6033 C1244.65364,850.080955 1245.23935,847.059536 1243.7195,844.836822 C1243.1811,844.053881 1242.4452,843.504395 1241.64548,843.155337 L1319.39042,633.849438 L1473.60448,728.614653 C1472.78749,730.158767 1472.80026,732.096979 1473.86805,733.650851 C1475.3864,735.878069 1478.39305,736.447072 1480.615,734.926228 C1482.83395,733.406135 1483.40314,730.398979 1481.88329,728.179268 C1481.00623,726.899387 1479.60728,726.164488 1478.15952,726.073658 L1479.55997,399.629029 L1858.24119,442.910013 C1858.17211,443.928663 1858.42892,444.985597 1859.06569,445.919422 C1860.57502,448.133127 1863.59294,448.700629 1865.81038,447.183538 C1868.03233,445.661944 1868.60152,442.663045 1867.08543,440.433576 C1865.56559,438.215366 1862.55893,437.646363 1860.33548,439.167958 C1859.59809,439.670902 1859.0747,440.332236 1858.71201,441.073891 L1544.03328,310.249072 L1704.39957,262.64652 C1704.51146,263.002334 1704.68417,263.328122 1704.9162,263.656912 C1706.41953,265.876623 1709.43444,266.446377 1711.65338,264.929286 C1713.87984,263.411446 1714.44753,260.399034 1712.92693,258.179324 C1711.64963,256.304167 1709.3188,255.645836 1707.29058,256.35221 L1573.51634,9.29170822 C1573.57567,9.25192308 1573.63724,9.20988594 1573.70407,9.16109284 C1575.91926,7.6552626 1576.49972,4.63684615 1574.97762,2.41563395 C1573.45927,0.194421751 1570.44136,-0.361068966 1568.22767,1.15001592 C1566.01173,2.66485411 1565.42226,5.67801592 1566.94061,7.90598408 C1567.04874,8.06587533 1567.20117,8.21375597 1567.32432,8.34437135 L1393.66463,178.533966 L1387.5034,176.995857 C1387.73168,174.978825 1386.38229,173.097663 1384.35858,172.717828 C1382.33938,172.337992 1380.40428,173.585594 1379.87338,175.535817 L1316.94394,167.487958 C1317.05358,165.551247 1315.72972,163.78869 1313.77735,163.420865 C1311.65527,163.022263 1309.60153,164.414743 1309.2088,166.546626 C1308.86563,168.33996 1309.82455,170.065735 1311.41047,170.80739 L1290.28356,228.151297 L1212.57542,229.76222 C1212.59945,227.903578 1211.28536,226.237857 1209.39306,225.876788 C1207.26798,225.487194 1205.22474,226.878172 1204.82751,229.001798 C1204.53841,230.500122 1205.16167,231.954156 1206.30005,232.823424 L1177.9824,271.912706 C1177.95612,271.888684 1177.92984,271.878926 1177.90881,271.856406 C1176.62551,271.054698 1176.26657,270.882796 1175.55095,270.814485 C1174.95247,270.767194 1173.22763,270.937594 1172.19062,271.643968 C1170.91932,272.513236 1170.19169,273.888451 1170.09783,275.321467 L1061.76299,265.867615 C1061.79678,263.870851 1060.40008,262.074515 1058.37187,261.694679 C1056.10561,261.268302 1053.92647,262.757618 1053.50145,265.023119 C1053.31673,266.035764 1053.52022,267.03865 1054.00982,267.867382 L985.785699,316.568154 L957.163182,297.437504 C957.383199,297.063674 957.557411,296.662069 957.632502,296.220679 C958.032738,294.099305 956.638294,292.051496 954.512462,291.651393 C952.390385,291.25204 950.340395,292.645271 949.938657,294.774151 C949.825269,295.352912 949.865067,295.932424 950.001733,296.469899 L928.582716,303.582432 L854.537526,259.751963 C855.345508,258.216857 855.292944,256.304167 854.251429,254.780321 C852.736088,252.56061 849.725681,251.990857 847.505234,253.509448 C845.389915,254.959729 844.791438,257.774716 846.049967,259.944133 L797.931519,291.468981 L776.501238,254.287886 C777.164294,253.826228 777.643376,253.123607 777.807825,252.272355 C778.133721,250.54508 777.004349,248.879358 775.268992,248.555072 C773.548652,248.233037 771.891389,249.370292 771.560237,251.091562 C771.452856,251.669573 771.515933,252.235573 771.705163,252.743772 L718.142602,277.235658 C718.010442,276.910621 717.865516,276.590838 717.662018,276.290573 C716.284095,274.281798 713.694199,273.633976 711.569869,274.675897 L647.264759,164.863639 C649.294475,163.299257 649.791579,160.419714 648.329553,158.281074 C646.811208,156.058361 643.77452,155.481851 641.548816,157.001194 C639.343388,158.509276 638.783207,161.516432 640.268511,163.733141 L544.884652,236.892019 L523.101443,214.490729 C524.661087,212.859538 524.926159,210.318544 523.594041,208.377329 C522.080953,206.154615 519.07355,205.585613 516.85085,207.107958 C515.06443,208.323281 514.359324,210.503207 514.939028,212.472196 L364.554611,263.886615 L217.686716,165.416127 C219.244108,162.956204 219.298925,159.693822 217.544043,157.131058 C215.201948,153.697525 210.521513,152.828257 207.089845,155.166573 C205.561739,156.210745 204.544253,157.716576 204.092204,159.347767 L203.96605,159.881488 C203.568818,161.780666 203.920245,163.829976 205.078151,165.56626 L106.098925,236.714862 C105.690428,236.151865 105.069424,235.748759 104.32527,235.656427 C102.918061,235.483024 101.63325,236.491915 101.46054,237.897907 C101.37794,238.569751 101.568672,239.201058 101.936619,239.707005 L8.69360982,306.724708 C7.1234526,304.762475 4.29701944,304.308324 2.1982201,305.74209 C-0.0229779104,307.25918 -0.589165638,310.276846 0.935936849,312.49956 Z" id="Fill-1" fill="#0090FF" mask="url(#mask-4)"></path>
                        </g>
                    </g>
                </g>
            </g>
        </g>
    </g>
</svg>