<?xml version="1.0" encoding="UTF-8"?>
<svg width="140px" height="140px" viewBox="0 0 140 140" version="1.1" xmlns="http://www.w3.org/2000/svg" xmlns:xlink="http://www.w3.org/1999/xlink">
    <!-- Generator: Sketch 51.2 (57519) - http://www.bohemiancoding.com/sketch -->
    <title>logo 单色@1x</title>
    <desc>Created with Sketch.</desc>
    <defs></defs>
    <g id="logo-单色" stroke="none" stroke-width="1" fill="none" fill-rule="evenodd">
        <g id="Group-2">
            <circle id="Mask" fill="#1890FF" cx="70" cy="70" r="70"></circle>
            <path d="M31.9550335,108 C35.6517872,104.881569 38,100.215012 38,95 C38,92.1078051 37.2777593,89.3842986 36.0037974,87 L36.0054168,87 C33.4424415,81.8848387 32,76.1108695 32,70 C32,49.0131795 49.0131795,32 70,32 C90.9868205,32 108,49.0131795 108,70 C108,90.9868205 90.9868205,108 70,108 L31.9550335,108 Z M90,70 L90,62 C90,55.372583 84.627417,50 78,50 C74.9265823,50 72.123026,51.1554143 70,53.055574 C67.876974,51.1554143 65.0734177,50 62,50 C55.372583,50 50,55.372583 50,62 L50,70 C50,72.209139 51.790861,74 54,74 C56.209139,74 58,72.209139 58,70 L58,62 C58,59.790861 59.790861,58 62,58 C64.209139,58 66,59.790861 66,62 L66,70 C66,72.209139 67.790861,74 70,74 C72.209139,74 74,72.209139 74,70 L74,62 C74,59.790861 75.790861,58 78,58 C80.209139,58 82,59.790861 82,62 L82,70 C82,72.209139 83.790861,74 86,74 C88.209139,74 90,72.209139 90,70 Z M55.1507576,88.1213203 C63.3517677,96.3223305 76.6482323,96.3223305 84.8492424,88.1213203 C86.0208153,86.9497475 86.0208153,85.0502525 84.8492424,83.8786797 C83.6776695,82.7071068 81.7781746,82.7071068 80.6066017,83.8786797 C74.7487373,89.736544 65.2512627,89.736544 59.3933983,83.8786797 C58.2218254,82.7071068 56.3223305,82.7071068 55.1507576,83.8786797 C53.9791847,85.0502525 53.9791847,86.9497475 55.1507576,88.1213203 Z" id="Combined-Shape" fill="#FFFFFF"></path>
        </g>
    </g>
</svg>